<?xml version="1.0" encoding="UTF-8" standalone="no"?>
<!-- Created with Inkscape (http://www.inkscape.org/) -->

<svg
   xmlns:osb="http://www.openswatchbook.org/uri/2009/osb"
   xmlns:dc="http://purl.org/dc/elements/1.1/"
   xmlns:cc="http://creativecommons.org/ns#"
   xmlns:rdf="http://www.w3.org/1999/02/22-rdf-syntax-ns#"
   xmlns:svg="http://www.w3.org/2000/svg"
   xmlns="http://www.w3.org/2000/svg"
   xmlns:sodipodi="http://sodipodi.sourceforge.net/DTD/sodipodi-0.dtd"
   xmlns:inkscape="http://www.inkscape.org/namespaces/inkscape"
   width="110mm"
   height="145.47681mm"
   viewBox="0 0 110 145.47681"
   version="1.1"
   id="svg8"
   inkscape:version="0.92.2 (unknown)"
   sodipodi:docname="sunflower_for_cut.svg">
  <title
     id="title854">Sunflower</title>
  <defs
     id="defs2">
    <linearGradient
       id="linearGradient1237"
       osb:paint="solid">
      <stop
         style="stop-color:#009a00;stop-opacity:1;"
         offset="0"
         id="stop1235" />
    </linearGradient>
    <linearGradient
       id="linearGradient1231"
       osb:paint="solid">
      <stop
         style="stop-color:#008700;stop-opacity:1;"
         offset="0"
         id="stop1229" />
    </linearGradient>
    <linearGradient
       id="linearGradient1225"
       osb:paint="solid">
      <stop
         style="stop-color:#930000;stop-opacity:1;"
         offset="0"
         id="stop1223" />
    </linearGradient>
    <linearGradient
       id="linearGradient1219"
       osb:paint="solid">
      <stop
         style="stop-color:#00a700;stop-opacity:1;"
         offset="0"
         id="stop1217" />
    </linearGradient>
    <linearGradient
       id="linearGradient1213"
       osb:paint="solid">
      <stop
         style="stop-color:#006c00;stop-opacity:1;"
         offset="0"
         id="stop1211" />
    </linearGradient>
    <linearGradient
       id="linearGradient1207"
       osb:paint="solid">
      <stop
         style="stop-color:#000094;stop-opacity:1;"
         offset="0"
         id="stop1205" />
    </linearGradient>
    <linearGradient
       id="linearGradient1201"
       osb:paint="solid">
      <stop
         style="stop-color:#000087;stop-opacity:1;"
         offset="0"
         id="stop1199" />
    </linearGradient>
    <linearGradient
       id="linearGradient1195"
       osb:paint="solid">
      <stop
         style="stop-color:#008700;stop-opacity:1;"
         offset="0"
         id="stop1193" />
    </linearGradient>
    <linearGradient
       id="linearGradient1189"
       osb:paint="solid">
      <stop
         style="stop-color:#810000;stop-opacity:1;"
         offset="0"
         id="stop1187" />
    </linearGradient>
    <linearGradient
       id="linearGradient1183"
       osb:paint="solid">
      <stop
         style="stop-color:#007a00;stop-opacity:1;"
         offset="0"
         id="stop1181" />
    </linearGradient>
    <linearGradient
       id="linearGradient1177"
       osb:paint="solid">
      <stop
         style="stop-color:#002c00;stop-opacity:1;"
         offset="0"
         id="stop1175" />
    </linearGradient>
    <linearGradient
       id="linearGradient1147"
       osb:paint="solid">
      <stop
         style="stop-color:#000000;stop-opacity:1;"
         offset="0"
         id="stop1145" />
    </linearGradient>
    <linearGradient
       id="linearGradient1139"
       osb:paint="solid">
      <stop
         style="stop-color:#000000;stop-opacity:1;"
         offset="0"
         id="stop1137" />
    </linearGradient>
    <linearGradient
       id="linearGradient1131"
       osb:paint="solid">
      <stop
         style="stop-color:#000000;stop-opacity:1;"
         offset="0"
         id="stop1129" />
    </linearGradient>
    <linearGradient
       id="linearGradient1061"
       osb:paint="solid">
      <stop
         style="stop-color:#000000;stop-opacity:1;"
         offset="0"
         id="stop1059" />
    </linearGradient>
    <linearGradient
       id="linearGradient1019"
       osb:paint="solid">
      <stop
         style="stop-color:#000000;stop-opacity:1;"
         offset="0"
         id="stop1017" />
    </linearGradient>
    <linearGradient
       id="linearGradient986"
       osb:paint="solid">
      <stop
         style="stop-color:#000000;stop-opacity:1;"
         offset="0"
         id="stop984" />
    </linearGradient>
    <linearGradient
       id="linearGradient952"
       osb:paint="solid">
      <stop
         style="stop-color:#000000;stop-opacity:1;"
         offset="0"
         id="stop950" />
    </linearGradient>
    <linearGradient
       id="linearGradient939"
       osb:paint="solid">
      <stop
         style="stop-color:#000000;stop-opacity:1;"
         offset="0"
         id="stop937" />
    </linearGradient>
    <inkscape:tag
       id="Set 1"
       inkscape:expanded="true" />
    <linearGradient
       id="white"
       osb:paint="solid">
      <stop
         style="stop-color:#ffffff;stop-opacity:1;"
         offset="0"
         id="stop4573" />
    </linearGradient>
  </defs>
  <sodipodi:namedview
     id="base"
     pagecolor="#ffffff"
     bordercolor="#666666"
     borderopacity="1.0"
     inkscape:pageopacity="0.0"
     inkscape:pageshadow="2"
     inkscape:zoom="1.4142136"
     inkscape:cx="140.72227"
     inkscape:cy="268.1803"
     inkscape:document-units="mm"
     inkscape:current-layer="layer1"
     showgrid="false"
     inkscape:window-width="1855"
     inkscape:window-height="1056"
     inkscape:window-x="65"
     inkscape:window-y="24"
     inkscape:window-maximized="1"
     fit-margin-top="0"
     fit-margin-left="0"
     fit-margin-right="0"
     fit-margin-bottom="0" />
  <metadata
     id="metadata5">
    <rdf:RDF>
      <cc:Work
         rdf:about="">
        <dc:format>image/svg+xml</dc:format>
        <dc:type
           rdf:resource="http://purl.org/dc/dcmitype/StillImage" />
        <dc:title>Sunflower</dc:title>
        <dc:date>2017-10-07</dc:date>
        <dc:creator>
          <cc:Agent>
            <dc:title>tpudlik@gmail.com</dc:title>
          </cc:Agent>
        </dc:creator>
      </cc:Work>
    </rdf:RDF>
  </metadata>
  <g
     inkscape:label="main"
     inkscape:groupmode="layer"
     id="layer1"
     style="display:inline"
     transform="translate(0,-151.52319)">
    <path
       style="color:#000000;font-style:normal;font-variant:normal;font-weight:normal;font-stretch:normal;font-size:medium;line-height:normal;font-family:sans-serif;font-variant-ligatures:normal;font-variant-position:normal;font-variant-caps:normal;font-variant-numeric:normal;font-variant-alternates:normal;font-feature-settings:normal;text-indent:0;text-align:start;text-decoration:none;text-decoration-line:none;text-decoration-style:solid;text-decoration-color:#000000;letter-spacing:normal;word-spacing:normal;text-transform:none;writing-mode:lr-tb;direction:ltr;text-orientation:mixed;dominant-baseline:auto;baseline-shift:baseline;text-anchor:start;white-space:normal;shape-padding:0;clip-rule:nonzero;display:inline;overflow:visible;visibility:visible;opacity:1;isolation:auto;mix-blend-mode:normal;color-interpolation:sRGB;color-interpolation-filters:linearRGB;solid-color:#000000;solid-opacity:1;vector-effect:none;fill:#000000;fill-opacity:1;fill-rule:nonzero;stroke:none;stroke-width:1.92097127;stroke-linecap:butt;stroke-linejoin:miter;stroke-miterlimit:4;stroke-dasharray:none;stroke-dashoffset:0;stroke-opacity:1;color-rendering:auto;image-rendering:auto;shape-rendering:auto;text-rendering:auto;enable-background:accumulate"
       d="M 0,151.52319 V 297 H 110 V 151.52319 Z m 2.8844595,1.92022 H 44.86106 v 6.44501 H 7.7379125 Z m 62.2544785,0 h 25.269027 l -4.772412,6.44501 H 65.138938 Z m 27.137475,0 h 14.839127 l -4.85345,6.44501 H 87.163323 Z m -37.276602,0.22624 a 2.971566,2.971566 0 0 1 2.971879,2.9715 2.971566,2.971566 0 0 1 -2.971879,2.97151 2.971566,2.971566 0 0 1 -2.971503,-2.97151 2.971566,2.971566 0 0 1 2.971503,-2.9715 z m 53.080349,1.68573 v 31.32834 l -4.37772,1.96449 v -27.47927 z m -106.1588121,0.002 4.3773366,5.8132 v 5.9625 L 1.9213479,162.9574 Z m 6.2975587,6.45214 H 51.751794 l 0.784521,7.14211 c -1.389577,0.40197 -2.383143,1.62248 -3.065299,2.72313 -0.684937,1.10515 -0.999294,2.01883 -1.043778,2.14421 -2.304,1.29013 -3.875776,4.46199 -3.628835,7.81332 0.19488,2.64481 -1.366876,5.32655 -1.783651,6.01542 -0.02052,-0.0379 -0.02657,-0.0391 -0.04953,-0.0837 -0.207477,-0.40227 -0.528644,-1.04101 -1.164213,-1.78554 -0.627377,-0.73492 -1.190973,-1.20215 -1.606938,-1.48725 -0.415966,-0.2851 -0.718863,-0.40145 -0.718863,-0.40145 l -0.235244,-0.0863 -0.74025,0.51589 c -0.815418,-0.59509 -1.646282,-0.90391 -2.332551,-0.99126 -0.712955,-0.0907 -1.298824,-0.0108 -1.497756,0.0124 -0.0073,-0.001 -0.0068,3.7e-4 -0.01838,-0.005 -0.05104,-0.025 -0.139156,-0.0756 -0.242373,-0.14295 -0.206437,-0.13478 -0.480745,-0.33095 -0.788649,-0.52339 -0.615812,-0.38488 -1.395403,-0.81931 -2.233129,-0.57292 -0.349924,0.10292 -0.540408,0.39671 -0.649454,0.67497 -0.109046,0.27826 -0.162868,0.59106 -0.195849,0.94173 -0.06597,0.70132 -0.03581,1.55156 0.02964,2.38921 0.100007,1.28007 0.230125,2.00006 0.312158,2.51714 -0.367922,-0.17839 -0.650924,-0.42969 -0.913211,-0.7969 -0.195733,-0.27403 -0.391453,-0.58387 -0.666337,-0.86519 -0.274885,-0.28132 -0.648948,-0.52977 -1.124819,-0.61831 -0.360203,-0.067 -0.670486,-0.13574 -0.94998,-0.18009 -0.279493,-0.0444 -0.527576,-0.0824 -0.813786,0.003 -0.03979,0.0119 -0.07872,0.0293 -0.117061,0.0495 L 8.2189066,168.96501 Z m 45.5915534,0 h 30.402374 l -9.241674,12.48069 c -1.545659,-0.12816 -2.942741,0.68619 -3.958628,1.48725 -1.020668,0.80484 -1.687602,1.64333 -1.687602,1.64333 l -0.02251,0.03 -0.01838,0.0311 c -0.282524,0.49442 -1.276522,1.05214 -2.21512,1.38971 -0.463031,0.16652 -0.552144,0.16576 -0.87907,0.24949 0.549231,-1.54813 0.379868,-2.79887 0.351551,-2.95086 0.29806,-1.35172 0.204964,-2.26431 -0.03414,-2.86457 -0.122293,-0.30703 -0.278662,-0.53129 -0.40558,-0.6836 -0.06346,-0.0762 -0.12063,-0.13468 -0.154579,-0.17146 -0.03398,-0.0368 -0.04182,-0.0689 -0.0012,0.0128 -0.0924,-0.18481 -0.332171,-0.27392 -0.443848,-0.27501 -0.11168,-0.001 -0.164207,0.0213 -0.210106,0.0383 -0.09181,0.0339 -0.14994,0.0693 -0.218361,0.11181 -0.136845,0.085 -0.294944,0.20042 -0.48362,0.3463 -0.37735,0.29177 -0.866773,0.70172 -1.384075,1.15408 -1.034595,0.90473 -2.157981,1.9517 -2.687109,2.57531 -0.383143,0.45155 -1.362378,1.10364 -2.219246,1.58668 -0.567123,0.31969 -0.772237,0.41022 -1.05616,0.54889 -0.184079,-1.77051 -0.987178,-3.87005 -1.881951,-5.71338 -1.010519,-2.08177 -2.024899,-3.73652 -2.024899,-3.73652 l -0.130567,-0.21348 z m 31.828847,0 h 16.141783 v 27.70063 l -13.260703,5.95089 c -0.605522,-0.3121 -1.061749,-0.48612 -1.439977,-0.55978 -0.399814,-0.0779 -0.738684,-0.0323 -0.982625,0.075 -0.243949,0.10734 -0.376799,0.22719 -0.43409,0.25663 -0.05729,0.0294 -0.03347,0.0426 -0.19285,-0.001 -0.780293,-0.21525 -1.481412,-0.4498 -1.851938,-0.57141 l 0.523393,-1.59944 -0.208605,-0.2086 c -0.669994,-0.67 -1.664228,-0.88781 -2.737012,-0.91172 -1.072791,-0.0239 -2.256833,0.15474 -3.387592,0.40409 -1.130751,0.24933 -2.206119,0.57161 -3.041657,0.8438 -0.776096,0.25282 -1.296977,0.44557 -1.462114,0.502 -0.0167,-0.0172 -0.02265,-0.0191 -0.04951,-0.0611 -0.09487,-0.14883 -0.203995,-0.43915 -0.248,-0.78565 -0.088,-0.69301 0.0559,-1.59089 0.717368,-2.31117 0.845941,-0.92114 1.494771,-2.23342 2.029395,-3.44611 0.534631,-1.21269 0.971204,-2.35867 1.219371,-2.77229 0.741806,-1.23633 0.616811,-2.94373 0.616811,-2.94373 l -0.0097,-0.248 -0.210108,-0.1347 c -0.94588,-0.61088 -1.853382,-0.5225 -2.44023,-0.23974 -0.128066,0.0617 -0.09725,0.0888 -0.19998,0.16021 -0.177073,-0.91343 -0.181734,-1.57289 -0.06266,-2.02228 0.151473,-0.5718 0.467089,-1.04567 0.488129,-1.80354 0.03282,-1.18037 0.262252,-2.20649 0.262252,-2.20649 l 0.05743,-0.25437 z m -83.7179591,3.35683 4.3773366,3.89183 v 21.82179 l -4.3773366,-2.1382 z m 50.7474101,4.9919 0.01163,0.10354 c 0.07029,1.57899 0.214659,5.13099 0.284771,9.15276 0.07753,4.44758 0.05673,9.42054 -0.252128,12.70993 a 16.669131,17.167922 0 0 0 -1.26139,0.20147 c -2.776091,-7.27475 -2.38165,-12.92395 -1.282773,-16.78244 0.774777,-2.72045 1.879411,-4.51596 2.49989,-5.38509 z m -0.944353,0.38569 c -0.650589,1.04681 -1.491771,2.67082 -2.110066,4.84182 -1.126636,3.95593 -1.517627,9.73066 1.275644,17.08801 a 16.669131,17.167922 0 0 0 -1.271143,0.36469 l 0.26751,-0.22323 c 0,0 -3.592047,-4.34011 -4.013028,-9.57898 l -0.156455,0.0123 c 0.05772,-0.49065 0.07679,-0.98959 0.04015,-1.48687 -0.226894,-3.07926 1.352333,-6.04003 3.271654,-7.01492 l 0.172963,-0.0882 0.06228,-0.18272 c 0,0 0.354836,-1.01871 1.022391,-2.09581 0.385288,-0.62166 0.87977,-1.20692 1.438103,-1.63621 z M 8.2189066,170.76547 25.9545,186.53357 c -0.06897,0.10555 -0.117756,0.22181 -0.136194,0.33579 -0.04885,0.30203 -0.0012,0.6052 0.09042,1.00814 0.148235,0.65223 0.168019,1.85196 0.295274,3.10694 0.127253,1.25499 0.362236,2.59587 1.080547,3.64422 0.605168,0.88322 0.822261,1.50955 0.897453,1.88908 0.01231,0.0622 0.007,0.0784 0.01276,0.12757 -1.089195,0.14378 -2.997457,0.0213 -4.8921,-0.25101 -2.069514,-0.29746 -4.060889,-0.7101 -4.804303,-0.89182 -1.506783,-0.36832 -2.554909,-0.066 -2.746013,-0.004 l -7.5334344,-3.67994 z m 45.0659134,0.17371 c 0.319417,0.56437 0.735864,1.33388 1.212987,2.3168 0.986431,2.03213 1.941657,4.50985 1.928852,5.99703 -3.84e-4,0.0118 -0.07713,2.45074 -0.452479,5.36597 -0.330759,2.5689 -0.920265,5.51136 -1.81742,7.3856 a 16.669131,17.167922 0 0 0 -0.855432,0.0439 c 0.306601,-3.35186 0.316077,-8.24344 0.239371,-12.64352 -0.0623,-3.57369 -0.180032,-6.67431 -0.255879,-8.46578 z m 11.714173,2.65035 c -0.436024,1.46041 -1.439241,4.70959 -2.754268,8.25004 -1.392425,3.74885 -3.157244,7.81238 -4.891724,10.34398 a 16.669131,17.167922 0 0 0 -2.126575,-0.1981 c 0.889249,-2.05205 1.386901,-4.80555 1.700736,-7.24304 0.318791,-2.47595 0.420904,-4.52527 0.447599,-5.17236 0.268176,-0.1295 0.743618,-0.36393 1.397207,-0.73237 0.89259,-0.50318 1.902662,-1.12048 2.480006,-1.80091 0.431359,-0.50839 1.571544,-1.58828 2.586557,-2.47588 0.432937,-0.3786 0.83043,-0.70915 1.160462,-0.97136 z m 0.594676,0.0232 c 0.0073,0.0165 0.01464,0.0309 0.02176,0.0488 0.158486,0.39789 0.27505,1.10119 -0.01838,2.37269 l -0.02288,0.10206 0.01989,0.10205 c 0,0 0.339082,1.67927 -0.631068,3.36921 l -0.524515,0.9132 0.181591,-0.0356 c -0.400168,1.0303 -1.1703,2.94752 -2.172724,5.06956 -0.728112,1.54134 -1.563375,3.15519 -2.424476,4.51653 -0.579587,0.91628 -1.176863,1.71186 -1.739003,2.29617 a 16.669131,17.167922 0 0 0 -0.296026,-0.0687 c 1.766652,-2.63218 3.43417,-6.58955 4.797177,-10.25919 1.378579,-3.71155 2.403865,-7.06198 2.80867,-8.42675 z m 8.698771,1.87407 c -0.300906,0.7088 -1.842523,4.38985 -4.271157,9.01994 -1.325765,2.52751 -2.812506,5.11924 -4.27979,7.20214 -0.77224,1.09624 -1.544914,2.04674 -2.274776,2.77377 a 16.669131,17.167922 0 0 0 -2.072173,-1.09705 c 3.756765,-7.81819 7.106584,-12.38093 9.547078,-14.99746 1.294967,-1.38837 2.333415,-2.22892 3.043167,-2.72125 0.204067,-0.14155 0.161855,-0.0924 0.307651,-0.18009 z m -1.361936,0.24988 c -0.659637,0.52402 -1.47012,1.25073 -2.41022,2.25864 -2.489867,2.66947 -5.869905,7.28421 -9.648379,15.14979 a 16.669131,17.167922 0 0 0 -1.515016,-0.52039 c 0.503654,-0.58489 0.994356,-1.27766 1.476747,-2.04029 0.89397,-1.4133 1.744234,-3.05466 2.483005,-4.61858 1.292197,-2.73545 2.201359,-5.12146 2.420349,-5.70663 0.336034,-0.0767 0.959099,-0.23194 1.656838,-0.48288 1.001504,-0.36019 2.148535,-0.85758 2.699491,-1.77689 0.04426,-0.0549 0.62272,-0.76561 1.513139,-1.46775 0.396483,-0.31264 0.847522,-0.5872 1.324046,-0.79502 z m 1.246002,1.51239 c -0.06346,0.39578 -0.272089,0.7672 -0.437096,1.39008 -0.186039,0.70231 -0.238619,1.65811 0.166582,3.13321 -0.06781,0.28586 -0.481965,1.99345 -1.210361,4.04904 -0.795521,2.24504 -1.977973,4.81272 -3.275778,6.02255 -1.812198,1.68933 -3.630857,2.87481 -4.701127,3.50915 A 16.669131,17.167922 0 0 0 63.9766,194.80647 c 0.735461,-0.74966 1.482089,-1.69564 2.235755,-2.76552 1.49136,-2.11708 2.98684,-4.72515 4.31956,-7.26592 1.5121,-2.88275 2.799354,-5.64597 3.644591,-7.52593 z m 1.713119,4.25352 c 0.209041,0.008 0.448132,0.0689 0.722617,0.20373 -0.0083,0.38348 -0.05046,1.42631 -0.462238,2.1127 -0.369284,0.61547 -0.754701,1.69888 -1.274891,2.87882 -0.520191,1.17995 -1.159872,2.42378 -1.857564,3.18349 -0.882151,0.96056 -1.08056,2.15475 -0.962738,3.08256 0.05619,0.44271 0.18043,0.82689 0.366185,1.13532 -0.723721,0.63814 -2.822754,2.38496 -5.306683,3.48176 a 16.669131,17.167922 0 0 0 -1.601687,-1.58667 c 1.136697,-0.69413 2.850021,-1.8507 4.562684,-3.44724 1.564391,-1.45834 2.709355,-4.10369 3.524905,-6.40525 0.746852,-2.10768 1.17175,-3.85755 1.24113,-4.14997 0.08051,-0.0888 0.252305,-0.25702 0.506127,-0.37932 0.15413,-0.0743 0.333113,-0.11824 0.542153,-0.10993 z m -44.069034,1.49551 c 0.336616,-0.007 0.821739,0.19204 1.290652,0.48512 0.275247,0.17202 0.5373,0.35968 0.772515,0.51326 0.11761,0.0768 0.228075,0.14583 0.344801,0.20298 0.116724,0.0571 0.232845,0.12357 0.455105,0.10505 0.280627,-0.0234 0.726218,-0.10369 1.361187,-0.0229 0.625609,0.0796 1.377624,0.31439 2.128828,0.94623 0.0577,0.0784 1.201839,1.63245 2.767774,3.62545 0.746574,0.95019 1.63183,2.63345 2.262019,4.17324 0.315093,0.7699 0.57043,1.50668 0.72149,2.09581 0.09761,0.38069 0.127366,0.70318 0.136569,0.89933 a 16.669131,17.167922 0 0 0 -1.60281,1.62307 c -0.560922,-1.44981 -1.461093,-2.97595 -2.416223,-4.31505 -0.615026,-0.86227 -1.2516,-1.64272 -1.843306,-2.26578 -0.59171,-0.62305 -1.117981,-1.08875 -1.612566,-1.33605 -0.895422,-0.44771 -2.144918,-0.64348 -3.20337,-0.75975 -0.679783,-0.0747 -1.175609,-0.10248 -1.516892,-0.11707 -0.08687,-0.55902 -0.247633,-1.67118 -0.33767,-2.82367 -0.06319,-0.80891 -0.08775,-1.62697 -0.03152,-2.22488 0.02812,-0.29895 0.08053,-0.54276 0.134693,-0.68096 0.0262,-0.0669 0.04647,-0.096 0.05403,-0.10768 0.04154,-0.01 0.0866,-0.0147 0.134692,-0.0158 z m 7.518426,1.90596 c 0.07876,0.0379 0.09928,0.0342 0.312158,0.1801 0.347279,0.23801 0.846115,0.64616 1.419342,1.31766 0.565039,0.6619 0.82805,1.18963 1.040777,1.60206 0.106364,0.20621 0.193709,0.38913 0.343298,0.56466 0.09176,0.10767 0.230825,0.2085 0.387197,0.27089 0.213474,0.35376 0.823184,1.38786 1.403585,2.60457 0.355481,0.7452 0.688495,1.54257 0.889198,2.23913 0.159556,0.55373 0.214221,1.04262 0.184594,1.35181 a 16.669131,17.167922 0 0 0 -0.358682,0.28064 c -0.03076,-0.13686 -0.06598,-0.2791 -0.105052,-0.43147 -0.167299,-0.65247 -0.435448,-1.42157 -0.763137,-2.22225 -0.655375,-1.60134 -1.540518,-3.31404 -2.394834,-4.40135 -1.300269,-1.65489 -2.156878,-2.80439 -2.495388,-3.26078 z m 5.892355,0.27352 c 0.89816,4.03303 3.209678,7.15614 3.784913,7.88761 a 16.669131,17.167922 0 0 0 -2.741136,1.35331 c -0.03938,-0.32086 -0.117548,-0.65467 -0.217235,-1.00064 -0.224573,-0.77939 -0.576633,-1.61408 -0.945851,-2.38808 -0.545003,-1.14249 -1.127046,-2.14832 -1.396833,-2.60119 0.309962,-0.49835 1.012571,-1.7162 1.516142,-3.25101 z m -18.353906,1.90896 c 0.04667,10e-4 0.109732,0.007 0.201101,0.0214 0.233982,0.0371 0.547529,0.10539 0.924845,0.17559 0.261643,0.0486 0.429461,0.15917 0.612309,0.3463 0.182846,0.18713 0.361298,0.45524 0.572914,0.7515 0.42323,0.59252 1.064482,1.31228 2.223749,1.41221 l 0.619438,0.054 -0.0049,-0.0277 c 0.328569,0.0184 0.765255,0.049 1.251632,0.10243 1.01247,0.11123 2.221498,0.33674 2.878456,0.66522 0.281605,0.1408 0.792937,0.55503 1.345806,1.1372 0.552867,0.58216 1.166432,1.33302 1.758138,2.16259 1.033724,1.44929 1.997274,3.15089 2.481505,4.60133 a 16.669131,17.167922 0 0 0 -0.800655,1.15295 c -0.0724,-0.24735 -0.196001,-0.50291 -0.356054,-0.76575 -0.341837,-0.56139 -0.864647,-1.17424 -1.511639,-1.82793 -1.293988,-1.3074 -3.088352,-2.76895 -4.90936,-4.1421 -3.490505,-2.63205 -6.994197,-4.88077 -7.286934,-5.06806 -0.01099,-0.0576 -0.02049,-0.11747 -0.03301,-0.17258 -0.07181,-0.31598 -0.0746,-0.49108 -0.06941,-0.57705 0.0251,-7.3e-4 0.05538,-0.003 0.102051,-0.001 z m 81.202694,0.80591 v 15.05861 l -4.37772,0.77439 v -14.01521 z m -81.098016,0.69935 c 1.082944,0.70431 3.95276,2.60038 6.836707,4.77504 1.809264,1.36429 3.587794,2.81501 4.8452,4.08544 0.628703,0.63522 1.127086,1.2274 1.429474,1.724 0.302386,0.49659 0.383948,0.87834 0.313283,1.0948 l 0.130565,0.0424 a 16.669131,17.167922 0 0 0 -0.934971,1.85869 c -3.329558,-3.93501 -8.868391,-5.19014 -10.428399,-5.47439 -0.0073,-0.10788 -0.02188,-0.22927 -0.04915,-0.36694 -0.1049,-0.5295 -0.383863,-1.27561 -1.047905,-2.24475 -0.550902,-0.80403 -0.795895,-2.00156 -0.917339,-3.19925 -0.08198,-0.80848 -0.109316,-1.60041 -0.177465,-2.29504 z m 74.798946,1.91609 v 13.55749 l -7.461393,1.31954 c -0.03964,-0.10117 -0.0938,-0.19867 -0.167714,-0.28815 -0.40836,-0.49433 -0.953105,-0.71012 -1.741254,-0.92146 -0.788148,-0.21135 -1.896392,-0.4536 -3.662977,-1.01414 -1.85784,-0.58951 -3.411224,-0.57993 -4.555929,-0.49187 -0.572357,0.044 -1.045718,0.10583 -1.384072,0.12343 -0.11152,0.006 -0.09133,-0.007 -0.165834,-0.0128 0.07848,-0.1043 0.127274,-0.18426 0.255129,-0.32341 0.434932,-0.47341 1.110175,-1.09303 1.822293,-1.71161 0.712118,-0.61859 1.462934,-1.23892 2.064673,-1.73564 0.300863,-0.24834 0.564944,-0.46715 0.769882,-0.63969 0.204946,-0.17254 0.332423,-0.27727 0.439724,-0.39282 0.325032,-0.35004 0.503143,-0.80757 0.644953,-1.20098 0.141809,-0.39341 0.22436,-0.7245 0.22436,-0.7245 l 0.04951,-0.19997 z m -99.8597421,0.6277 4.3773366,1.51989 v 25.93123 l -4.3773366,0.74063 z m 79.2543231,1.76452 c 0.814468,0.0182 1.425711,0.20724 1.844808,0.502 l -0.372558,1.13832 c -0.61271,0.0969 -2.067679,0.38826 -3.983769,1.17735 -2.414267,0.99424 -5.593131,2.78363 -8.854102,5.97077 a 16.669131,17.167922 0 0 0 -2.051538,-3.34707 c 2.713538,-1.25071 4.891227,-3.14313 5.467264,-3.66823 0.08516,0.005 0.172651,-0.004 0.25701,-0.0304 0.221963,-0.0701 0.766178,-0.27546 1.582548,-0.5414 0.81637,-0.26594 1.864789,-0.57881 2.950867,-0.81829 1.086077,-0.23948 2.211594,-0.40418 3.15947,-0.38306 z m -72.9567644,0.42171 6.9196234,2.40233 -0.459232,0.17372 0.943226,0.49637 c 0.878587,0.46242 1.120948,0.92818 1.268892,1.47187 0.147944,0.5437 0.119383,1.19097 0.398452,1.85644 0.465224,1.10939 1.17783,2.19245 3.20337,3.25853 0.918537,0.48343 1.920813,1.26289 2.578304,1.89995 0.166996,0.16182 0.222412,0.25388 0.337296,0.3872 -0.817118,-0.004 -3.253953,-0.0233 -5.989904,0.0229 -1.528609,0.0258 -2.994447,0.0712 -4.018657,0.15008 -0.51211,0.0394 -0.900459,0.081 -1.189727,0.15457 -0.07231,0.0184 -0.140046,0.0375 -0.214233,0.0709 -0.07419,0.0335 -0.168399,0.0667 -0.270512,0.22136 -0.102113,0.15464 -0.0758,0.47932 0.02101,0.60706 0.09681,0.12774 0.178612,0.16103 0.252504,0.19697 0.5824,0.28333 0.879084,0.54262 1.20811,0.94998 0.329026,0.40737 0.677667,0.97721 1.253509,1.7799 0.67064,0.93483 1.959724,1.73936 3.101318,2.37795 0.820653,0.45907 1.182677,0.60966 1.537152,0.7729 -0.459831,0.53431 -1.187202,1.17314 -1.820795,1.27451 -1.075077,0.17202 -1.853815,1.00095 -2.393711,1.73301 -0.539894,0.73206 -0.849428,1.42647 -0.849428,1.42647 l -0.06641,0.14745 0.0019,0.008 -0.30428,0.17709 -5.4477538,0.92222 z m 74.7464224,2.1427 c 0.160215,0.0532 1.301413,0.4312 2.250387,0.69298 0.338049,0.0933 0.675918,0.0394 0.887695,-0.0694 0.211778,-0.10884 0.303549,-0.19845 0.381199,-0.23262 0.07765,-0.0341 0.157549,-0.0624 0.412708,-0.0128 0.105551,0.0205 0.279182,0.0901 0.471989,0.17372 -1.66189,0.63443 -5.332607,2.05648 -8.905127,3.58119 -2.405308,1.02655 -4.756628,2.09528 -6.413872,3.00189 -0.60304,0.3299 -1.109914,0.63545 -1.504135,0.91884 a 16.669131,17.167922 0 0 0 -0.31591,-0.89108 c 3.255042,-3.25205 6.424394,-5.04359 8.799702,-6.0218 2.26042,-0.93088 3.709124,-1.11595 3.935364,-1.14095 z m -65.352423,0.8712 c 0.191703,0.0114 0.403164,0.0378 0.656957,0.0998 0.800225,0.19561 2.788219,0.60775 4.895102,0.91059 2.055847,0.29549 4.168815,0.50715 5.513036,0.24312 0.375794,0.0592 7.115506,1.17578 10.512066,5.60346 a 16.669131,17.167922 0 0 0 -0.386069,1.19685 c -5.262549,-1.97118 -18.673847,-7.09211 -21.191092,-8.05372 z m 70.101195,0.16696 c -0.124711,0.33119 -0.309182,0.69692 -0.423961,0.82053 -0.0044,0.004 -0.157528,0.14464 -0.356056,0.31179 -0.198527,0.16714 -0.460205,0.38406 -0.761256,0.63257 -0.602088,0.49701 -1.358734,1.12183 -2.083057,1.75101 -0.724316,0.62918 -1.41445,1.25928 -1.900335,1.78816 -0.242946,0.26443 -0.435172,0.49698 -0.567288,0.73612 -0.02948,0.0534 -0.05605,0.10818 -0.07917,0.16658 -1.60253,0.21995 -6.573948,0.99138 -10.505685,2.55692 a 16.669131,17.167922 0 0 0 -0.291147,-1.17585 c 0.368771,-0.28052 0.908559,-0.61661 1.581049,-0.9845 1.622988,-0.88787 3.966844,-1.95482 6.36397,-2.97788 3.698981,-1.57867 7.46642,-3.03276 9.022933,-3.62545 z m -70.113575,0.44159 c 2.415606,0.92285 15.823386,6.0462 21.0639,8.0088 a 16.669131,17.167922 0 0 0 -0.296775,1.44298 c -1.801606,-0.0309 -4.912756,-0.23249 -7.891366,-1.16608 -2.207936,-0.69205 -5.860042,-3.06821 -8.913756,-5.26655 -2.186044,-1.5737 -3.062926,-2.30408 -3.962003,-3.01915 z m 0.296774,1.00514 c 0.930851,0.71625 2.075462,1.57943 3.329059,2.48188 3.06938,2.20961 6.68829,4.60039 9.076964,5.34908 3.021081,0.9469 6.150646,1.15941 7.996043,1.19348 a 16.669131,17.167922 0 0 0 -0.108429,0.92184 c -7.314119,2.34193 -12.340056,-1.53618 -13.555229,-2.6177 -0.02524,-0.046 -0.05204,-0.0904 -0.07954,-0.13544 -0.176885,-0.28984 -0.455184,-0.59999 -0.816788,-0.95036 -0.723207,-0.70075 -1.76256,-1.51602 -2.799289,-2.06167 -1.885009,-0.99211 -2.338494,-1.762 -2.76515,-2.77941 -0.140158,-0.33422 -0.159809,-0.82777 -0.27764,-1.4017 z m 36.230571,0.32153 a 0.51122626,0.51122626 0 0 1 0.511383,0.51139 0.51122626,0.51122626 0 0 1 -0.511383,0.51138 0.51122626,0.51122626 0 0 1 -0.511384,-0.51138 0.51122626,0.51122626 0 0 1 0.511384,-0.51139 z m 0.960485,1.37245 a 0.51122626,0.51122626 0 0 1 0.511384,0.51101 0.51122626,0.51122626 0 0 1 -0.511384,0.51138 0.51122626,0.51122626 0 0 1 -0.511383,-0.51138 0.51122626,0.51122626 0 0 1 0.511383,-0.51101 z m -4.459504,0.2056 a 0.51122626,0.51122626 0 0 1 0.511384,0.51139 0.51122626,0.51122626 0 0 1 -0.511384,0.511 0.51122626,0.51122626 0 0 1 -0.511009,-0.511 0.51122626,0.51122626 0 0 1 0.511009,-0.51139 z m 2.607192,0.0687 a 0.51122626,0.51122626 0 0 1 0.51101,0.51138 0.51122626,0.51122626 0 0 1 -0.51101,0.51101 0.51122626,0.51122626 0 0 1 -0.511383,-0.51101 0.51122626,0.51122626 0 0 1 0.511383,-0.51138 z m 4.116208,0.13732 a 0.51122626,0.51122626 0 0 1 0.511384,0.511 0.51122626,0.51122626 0 0 1 -0.511384,0.51139 0.51122626,0.51122626 0 0 1 -0.511009,-0.51139 0.51122626,0.51122626 0 0 1 0.511009,-0.511 z m 3.73914,0.14857 a 0.60251666,0.60251666 0 0 1 0.602555,0.60256 0.60251666,0.60251666 0 0 1 -0.602555,0.60255 0.60251666,0.60251666 0 0 1 -0.602555,-0.60255 0.60251666,0.60251666 0 0 1 0.602555,-0.60256 z m -1.612191,0.0571 a 0.51122626,0.51122626 0 0 1 0.511009,0.51138 0.51122626,0.51122626 0 0 1 -0.511009,0.51101 0.51122626,0.51122626 0 0 1 -0.511384,-0.51101 0.51122626,0.51122626 0 0 1 0.511384,-0.51138 z m -11.800467,1.57805 a 0.51122626,0.51122626 0 0 1 0.511383,0.51138 0.51122626,0.51122626 0 0 1 -0.511383,0.51101 0.51122626,0.51122626 0 0 1 -0.511007,-0.51101 0.51122626,0.51122626 0 0 1 0.511007,-0.51138 z m 4.802428,0.0687 a 0.51122626,0.51122626 0 0 1 0.511384,0.51101 0.51122626,0.51122626 0 0 1 -0.511384,0.51138 0.51122626,0.51122626 0 0 1 -0.511007,-0.51138 0.51122626,0.51122626 0 0 1 0.511007,-0.51101 z m 1.715368,0.34292 a 0.51122626,0.51122626 0 0 1 0.511009,0.51139 0.51122626,0.51122626 0 0 1 -0.511009,0.511 0.51122626,0.51122626 0 0 1 -0.511383,-0.511 0.51122626,0.51122626 0 0 1 0.511383,-0.51139 z m -3.499019,0.20598 a 0.51122626,0.51122626 0 0 1 0.511384,0.51101 0.51122626,0.51122626 0 0 1 -0.511384,0.51139 0.51122626,0.51122626 0 0 1 -0.511009,-0.51139 0.51122626,0.51122626 0 0 1 0.511009,-0.51101 z m 4.939747,0 a 0.51122626,0.51122626 0 0 1 0.511009,0.51101 0.51122626,0.51122626 0 0 1 -0.511009,0.51139 0.51122626,0.51122626 0 0 1 -0.511384,-0.51139 0.51122626,0.51122626 0 0 1 0.511384,-0.51101 z m 1.783653,0 a 0.51122626,0.51122626 0 0 1 0.511384,0.51101 0.51122626,0.51122626 0 0 1 -0.511384,0.51139 0.51122626,0.51122626 0 0 1 -0.511009,-0.51139 0.51122626,0.51122626 0 0 1 0.511009,-0.51101 z m 5.214012,0.37407 a 0.75466731,0.75466731 0 0 1 0.75488,0.7545 0.75466731,0.75466731 0 0 1 -0.75488,0.75451 0.75466731,0.75466731 0 0 1 -0.754507,-0.75451 0.75466731,0.75466731 0 0 1 0.754507,-0.7545 z m -1.577673,0.24312 a 0.51122626,0.51122626 0 0 1 0.511008,0.51138 0.51122626,0.51122626 0 0 1 -0.511008,0.51139 0.51122626,0.51122626 0 0 1 -0.511384,-0.51139 0.51122626,0.51122626 0 0 1 0.511384,-0.51138 z m -2.607194,0.41158 a 0.51122626,0.51122626 0 0 1 0.511384,0.51138 0.51122626,0.51122626 0 0 1 -0.511384,0.51139 0.51122626,0.51122626 0 0 1 -0.511384,-0.51139 0.51122626,0.51122626 0 0 1 0.511384,-0.51138 z m -9.879119,0.0687 a 0.51122626,0.51122626 0 0 1 0.511007,0.51139 0.51122626,0.51122626 0 0 1 -0.511007,0.51138 0.51122626,0.51122626 0 0 1 -0.511384,-0.51138 0.51122626,0.51122626 0 0 1 0.511384,-0.51139 z m 36.566737,0.0319 c 0.930873,-0.0121 2.037425,0.085 3.319678,0.49187 1.800933,0.57145 2.956965,0.82623 3.703875,1.02652 0.506011,0.13569 0.786588,0.23076 0.992005,0.36881 -1.326584,-0.0382 -4.839766,-0.11117 -8.944529,0.0454 -4.455351,0.16994 -9.471123,0.59799 -12.840866,1.6816 a 16.669131,17.167922 0 0 0 -0.14257,-0.971 c 3.964423,-1.60515 9.355628,-2.41768 10.679773,-2.59969 0.297109,0.14695 0.616231,0.13941 0.952233,0.12193 0.403452,-0.021 0.865596,-0.0828 1.40809,-0.12456 0.271247,-0.0208 0.562025,-0.0369 0.872311,-0.0409 z m -34.440163,0.17409 a 0.51122626,0.51122626 0 0 1 0.511384,0.51138 0.51122626,0.51122626 0 0 1 -0.511384,0.51101 0.51122626,0.51122626 0 0 1 -0.511009,-0.51101 0.51122626,0.51122626 0 0 1 0.511009,-0.51138 z m 57.382649,0.52451 v 19.85691 l -4.37772,-0.81116 v -18.51636 z m -58.411794,0.64157 a 0.51122626,0.51122626 0 0 1 0.511384,0.51139 0.51122626,0.51122626 0 0 1 -0.511384,0.51138 0.51122626,0.51122626 0 0 1 -0.511009,-0.51138 0.51122626,0.51122626 0 0 1 0.511009,-0.51139 z m 52.112724,0.12044 v 17.9273 l -8.813578,-1.63317 c 0.02875,-0.33036 -0.0538,-0.63531 -0.172593,-0.8817 -0.134331,-0.27862 -0.297421,-0.5368 -0.490743,-1.00401 -0.284236,-0.68691 -0.894898,-1.02308 -1.487256,-1.39383 -0.592366,-0.37075 -1.219139,-0.77545 -1.764138,-1.49175 -0.697816,-0.91713 -2.046058,-1.82803 -3.118203,-2.53703 -0.269164,-0.178 -0.412527,-0.27295 -0.628065,-0.41384 0.05126,-0.0268 0.110771,-0.007 0.161325,-0.0357 0.400249,-0.23081 0.80214,-0.55708 1.202483,-0.92184 0.800681,-0.72951 1.589047,-1.62324 2.1157,-2.20086 0.427461,-0.46883 1.470666,-1.08537 2.380949,-1.53002 0.910297,-0.44467 1.690234,-0.74588 1.690234,-0.74588 l 0.08104,-0.0312 0.06382,-0.0566 c 0,0 0.467183,-0.40958 0.862183,-0.94736 0.197504,-0.26888 0.385358,-0.57015 0.48362,-0.91733 0.02592,-0.0917 0.04327,-0.19063 0.05068,-0.29265 z m -42.164569,0.0168 a 0.51122626,0.51122626 0 0 1 0.511008,0.51139 0.51122626,0.51122626 0 0 1 -0.511008,0.51101 0.51122626,0.51122626 0 0 1 -0.511383,-0.51101 0.51122626,0.51122626 0 0 1 0.511383,-0.51139 z m 1.920972,0.27464 a 0.51122626,0.51122626 0 0 1 0.511007,0.51101 0.51122626,0.51122626 0 0 1 -0.511007,0.51139 0.51122626,0.51122626 0 0 1 -0.511383,-0.51139 0.51122626,0.51122626 0 0 1 0.511383,-0.51101 z m -14.407285,0.0683 a 0.51122626,0.51122626 0 0 1 0.511007,0.51138 0.51122626,0.51122626 0 0 1 -0.511007,0.51139 0.51122626,0.51122626 0 0 1 -0.511384,-0.51139 0.51122626,0.51122626 0 0 1 0.511384,-0.51138 z m 42.386308,0.59318 c 1.119468,7.2e-4 2.053616,0.0144 2.775652,0.0293 -3.406512,1.19537 -12.584528,3.92887 -20.85792,2.0868 a 16.669131,17.167922 0 0 0 -0.01538,-0.32341 c 3.235578,-1.05866 8.323453,-1.52688 12.812732,-1.69811 1.934481,-0.0738 3.75925,-0.0958 5.284921,-0.0945 z m -65.256749,0.21123 c 1.687297,1.37949 6.809956,4.81444 13.894027,2.70174 a 16.669131,17.167922 0 0 0 -0.0079,0.22624 16.669131,17.167922 0 0 0 0.100552,1.83017 c -2.659805,-1.01992 -5.49882,-1.04717 -10.569472,-1.44748 -2.852565,-0.2252 -4.890932,0.4057 -6.210891,1.10906 -0.723418,0.38548 -1.233005,0.79775 -1.552536,1.09593 -0.03033,0.005 -0.06671,0.0104 -0.06678,0.0105 -1.92e-4,8e-5 -0.08641,0.0437 -0.08667,0.0439 -3.85e-4,1.8e-4 -0.02255,0.0159 -0.0409,0.0296 -0.260037,-0.11759 -0.787105,-0.3457 -1.687604,-0.84942 -1.096681,-0.61348 -2.329299,-1.45571 -2.790661,-2.09882 -0.556162,-0.77525 -0.894811,-1.33741 -1.286151,-1.82192 -0.195559,-0.24212 -0.518308,-0.40532 -0.767263,-0.60556 0.11754,-0.012 0.149741,-0.0251 0.286645,-0.0357 0.98144,-0.0755 2.441929,-0.12179 3.962004,-0.14745 3.040148,-0.0513 6.309082,-0.0255 6.676126,-0.0255 0.04409,0 0.09441,-0.004 0.147448,-0.0154 z m 39.67894,0.0499 a 0.75466731,0.75466731 0 0 1 0.754506,0.75488 0.75466731,0.75466731 0 0 1 -0.754506,0.75451 0.75466731,0.75466731 0 0 1 -0.754882,-0.75451 0.75466731,0.75466731 0 0 1 0.754882,-0.75488 z m 29.341712,0.0263 c -0.05416,0.0961 -0.117632,0.1961 -0.189096,0.2934 -0.30084,0.40957 -0.649984,0.72197 -0.687723,0.75601 -0.0912,0.0357 -0.76509,0.29565 -1.657585,0.73162 -0.95065,0.46437 -2.034296,1.04828 -2.670231,1.74575 -0.536745,0.58869 -1.308957,1.4613 -2.05191,2.13821 -0.371484,0.33846 -0.73647,0.62616 -1.035146,0.7984 -0.298677,0.17224 -0.508727,0.19335 -0.5459,0.1831 -0.08048,-0.0222 -0.127172,-0.0485 -0.279517,-0.0412 -0.06345,0.003 -0.199347,0.005 -0.327166,0.13432 -1.602254,0.32406 -7.433865,1.21158 -12.43529,-1.78928 l -0.07804,0.13056 a 16.669131,17.167922 0 0 0 0.161331,-2.229 16.669131,17.167922 0 0 0 -0.02063,-0.42397 c 9.189695,1.98844 19.272584,-1.46336 21.816906,-2.42785 z m -44.023636,0.69748 a 0.51122626,0.51122626 0 0 1 0.511383,0.51138 0.51122626,0.51122626 0 0 1 -0.511383,0.51101 0.51122626,0.51122626 0 0 1 -0.51101,-0.51101 0.51122626,0.51122626 0 0 1 0.51101,-0.51138 z m 11.045585,0.0687 a 0.51122626,0.51122626 0 0 1 0.511384,0.51138 0.51122626,0.51122626 0 0 1 -0.511384,0.51101 0.51122626,0.51122626 0 0 1 -0.511009,-0.51101 0.51122626,0.51122626 0 0 1 0.511009,-0.51138 z m 2.108941,0.50501 a 0.72036426,0.72036426 0 0 1 0.720364,0.72036 0.72036426,0.72036426 0 0 1 -0.720364,0.72036 0.72036426,0.72036426 0 0 1 -0.720365,-0.72036 0.72036426,0.72036426 0 0 1 0.720365,-0.72036 z m -1.491379,1.27864 a 0.51122626,0.51122626 0 0 1 0.511009,0.51139 0.51122626,0.51122626 0 0 1 -0.511009,0.51138 0.51122626,0.51122626 0 0 1 -0.511384,-0.51138 0.51122626,0.51122626 0 0 1 0.511384,-0.51139 z m -11.868751,0.20598 a 0.51122626,0.51122626 0 0 1 0.511008,0.51138 0.51122626,0.51122626 0 0 1 -0.511008,0.51102 0.51122626,0.51122626 0 0 1 -0.511384,-0.51102 0.51122626,0.51122626 0 0 1 0.511384,-0.51138 z m 2.538159,0.34293 a 0.51122626,0.51122626 0 0 1 0.511384,0.51138 0.51122626,0.51122626 0 0 1 -0.511384,0.51101 0.51122626,0.51122626 0 0 1 -0.511009,-0.51101 0.51122626,0.51122626 0 0 1 0.511009,-0.51138 z m 11.251563,0.61756 a 0.51122626,0.51122626 0 0 1 0.511009,0.51138 0.51122626,0.51122626 0 0 1 -0.511009,0.51101 0.51122626,0.51122626 0 0 1 -0.511384,-0.51101 0.51122626,0.51122626 0 0 1 0.511384,-0.51138 z m -36.203932,0.43184 c 0.308738,0.003 0.630265,0.0171 0.964988,0.0435 5.445487,0.42991 8.195848,0.44856 10.80659,1.59643 a 16.669131,17.167922 0 0 0 0.214983,1.06103 c -4.436176,0.42903 -8.320847,-0.47896 -12.567353,-0.30202 -2.539619,0.10581 -5.456723,1.13953 -7.753671,2.14121 -1.092908,0.4766 -2.037315,0.94447 -2.73551,1.30754 0.03166,-0.0451 0.0557,-0.0841 0.0908,-0.1317 0.472044,-0.64006 1.132695,-1.25165 1.77277,-1.35406 1.078284,-0.17252 1.889361,-1.00196 2.407595,-1.60656 0.07391,-0.0862 0.0862,-0.11184 0.147447,-0.18872 l 0.127566,0.0552 0.182718,-0.35343 c 0.05387,-0.0683 0.521925,-0.63994 1.622694,-1.2265 1.024162,-0.54573 2.557224,-1.06282 4.718386,-1.0419 z m 34.488564,0.11706 a 0.51122626,0.51122626 0 0 1 0.511384,0.511 0.51122626,0.51122626 0 0 1 -0.511384,0.51139 0.51122626,0.51122626 0 0 1 -0.511007,-0.51139 0.51122626,0.51122626 0 0 1 0.511007,-0.511 z m -7.889489,0.27426 a 0.51122626,0.51122626 0 0 1 0.51101,0.51139 0.51122626,0.51122626 0 0 1 -0.51101,0.511 0.51122626,0.51122626 0 0 1 -0.511383,-0.511 0.51122626,0.51122626 0 0 1 0.511383,-0.51139 z m -2.881457,0.96049 a 0.51122626,0.51122626 0 0 1 0.511009,0.51138 0.51122626,0.51122626 0 0 1 -0.511009,0.51101 0.51122626,0.51122626 0 0 1 -0.511383,-0.51101 0.51122626,0.51122626 0 0 1 0.511383,-0.51138 z m 9.055955,0.27463 a 0.51122626,0.51122626 0 0 1 0.511384,0.51102 0.51122626,0.51122626 0 0 1 -0.511384,0.51138 0.51122626,0.51122626 0 0 1 -0.511384,-0.51138 0.51122626,0.51122626 0 0 1 0.511384,-0.51102 z m 11.792962,0.16921 c 5.306171,3.01869 11.265521,2.06728 12.881388,1.72775 0.01626,0.0117 0.02853,0.022 0.04581,0.0341 0.289093,0.20352 0.746068,0.49208 1.273388,0.8408 1.054648,0.69742 2.381668,1.65635 2.884463,2.31716 0.655596,0.86166 1.419604,1.34904 2.019274,1.72438 0.59967,0.37533 0.982785,0.63947 1.110183,0.94735 0.194468,0.46996 0.360912,0.7619 0.465984,0.96649 -0.958194,-0.50721 -3.558624,-1.84499 -6.962021,-3.25965 -4.180075,-1.7375 -9.451818,-3.53404 -14.034345,-3.84757 a 16.669131,17.167922 0 0 0 0.315909,-1.45085 z m -9.666011,0.3797 a 0.51122626,0.51122626 0 0 1 0.511007,0.511 0.51122626,0.51122626 0 0 1 -0.511007,0.51139 0.51122626,0.51122626 0 0 1 -0.511383,-0.51139 0.51122626,0.51122626 0 0 1 0.511383,-0.511 z m -8.370108,0.13694 a 0.51122626,0.51122626 0 0 1 0.511383,0.51139 0.51122626,0.51122626 0 0 1 -0.511383,0.511 0.51122626,0.51122626 0 0 1 -0.511384,-0.511 0.51122626,0.51122626 0 0 1 0.511384,-0.51139 z m 2.126951,0.41159 a 0.51122626,0.51122626 0 0 1 0.511008,0.51138 0.51122626,0.51122626 0 0 1 -0.511008,0.51138 0.51122626,0.51122626 0 0 1 -0.511383,-0.51138 0.51122626,0.51122626 0 0 1 0.511383,-0.51138 z m -28.302062,0.22923 c 3.840507,-0.0237 7.533892,0.74448 11.771952,0.31441 a 16.669131,17.167922 0 0 0 0.557158,1.72625 c -0.386167,0.283 -0.76677,0.40681 -1.232873,0.49675 -0.929504,0.17939 -2.228312,0.16879 -4.353327,0.83068 -0.987773,0.30766 -2.714155,0.48786 -4.713885,0.56465 -1.999727,0.0768 -4.283527,0.0569 -6.436377,-0.003 -3.724583,-0.10367 -6.165681,-0.28847 -6.998039,-0.34743 0.566663,-0.31478 1.241808,-0.72274 2.946739,-1.46624 2.265359,-0.9879 5.14692,-1.99468 7.546941,-2.09468 0.30511,-0.0127 0.608781,-0.0195 0.911711,-0.0214 z m 31.869366,0.52565 a 0.51122626,0.51122626 0 0 1 0.511383,0.511 0.51122626,0.51122626 0 0 1 -0.511383,0.51139 0.51122626,0.51122626 0 0 1 -0.511009,-0.51139 0.51122626,0.51122626 0 0 1 0.511009,-0.511 z m -2.469874,0.2056 a 0.51122626,0.51122626 0 0 1 0.511384,0.51138 0.51122626,0.51122626 0 0 1 -0.511384,0.51138 0.51122626,0.51122626 0 0 1 -0.511009,-0.51138 0.51122626,0.51122626 0 0 1 0.511009,-0.51138 z m -6.203013,0.057 a 0.51122626,0.51122626 0 0 1 0.511384,0.51101 0.51122626,0.51122626 0 0 1 -0.511384,0.51138 0.51122626,0.51122626 0 0 1 -0.511009,-0.51138 0.51122626,0.51122626 0 0 1 0.511009,-0.51101 z m 20.521379,0.0705 c 4.490441,0.27864 9.797114,2.07063 13.990824,3.8138 2.965859,1.2328 5.345966,2.42253 6.533928,3.03867 -1.013786,0.0749 -2.831273,0.12604 -5.294678,-0.13994 -3.922536,-0.42354 -9.457576,-1.65455 -15.898289,-4.88836 a 16.669131,17.167922 0 0 0 0.668215,-1.82417 z m -12.671659,1.17622 a 0.51122626,0.51122626 0 0 1 0.511009,0.51101 0.51122626,0.51122626 0 0 1 -0.511009,0.51138 0.51122626,0.51122626 0 0 1 -0.511384,-0.51138 0.51122626,0.51122626 0 0 1 0.511384,-0.51101 z m -3.05292,0.34818 a 0.54010386,0.54010386 0 0 1 0.539899,0.54027 0.54010386,0.54010386 0 0 1 -0.539899,0.5399 0.54010386,0.54010386 0 0 1 -0.540272,-0.5399 0.54010386,0.54010386 0 0 1 0.540272,-0.54027 z m -15.458565,0.19209 a 16.669131,17.167922 0 0 0 0.382317,0.81454 c -0.04125,0.055 -0.07858,0.10733 -0.119309,0.16133 -0.537559,0.71271 -1.033648,1.35256 -1.033648,1.35256 l 0.06603,0.051 c -1.484235,0.33489 -2.608608,0.87374 -3.554923,1.57467 -0.201952,-0.1021 -0.412642,-0.11805 -0.617938,-0.11255 -0.246172,0.007 -0.501879,0.0526 -0.777017,0.12043 -0.55028,0.13573 -1.174191,0.36297 -1.800911,0.60143 -0.626721,0.23846 -1.253755,0.48884 -1.776899,0.66934 -0.523142,0.18049 -0.984762,0.2664 -1.05916,0.25963 -0.158776,-0.0145 -0.858637,-0.16565 -1.694356,-0.37744 -0.83572,-0.2118 -1.855449,-0.48546 -2.842064,-0.75713 -1.942442,-0.53489 -3.721636,-1.04822 -3.777784,-1.06441 -0.15516,-0.0819 -1.789805,-0.92035 -3.943243,-0.92034 -0.942045,0 -1.409783,-0.33132 -1.691732,-0.64684 -0.05003,-0.056 -0.08737,-0.10433 -0.11931,-0.14932 1.29061,0.0865 4.194206,0.26527 7.402494,0.35455 2.160752,0.0601 4.452985,0.0789 6.473147,0.001 2.020163,-0.0776 3.759245,-0.24571 4.863961,-0.5898 2.05995,-0.64163 3.265273,-0.61733 4.291044,-0.81529 0.474112,-0.0915 0.90391,-0.24357 1.329298,-0.52789 z m 13.777715,0.2829 a 0.51122626,0.51122626 0 0 1 0.51101,0.51101 0.51122626,0.51122626 0 0 1 -0.51101,0.51138 0.51122626,0.51122626 0 0 1 -0.511383,-0.51138 0.51122626,0.51122626 0 0 1 0.511383,-0.51101 z m 16.507599,0.35305 c 6.494526,3.25627 12.089072,4.50351 16.06675,4.93299 2.902468,0.3134 4.940866,0.19012 5.843576,0.0998 -0.128944,0.11922 -0.284032,0.24811 -0.464859,0.37932 -0.45781,0.33221 -1.012363,0.66211 -1.389699,0.88508 -0.17451,0.10312 -0.844765,0.18224 -1.622321,0.27501 -0.777556,0.0928 -1.695404,0.25106 -2.491263,0.80816 -0.104063,0.0729 -0.685147,0.14613 -1.41371,0.0229 -0.72857,-0.1232 -1.598115,-0.37079 -2.388086,-0.62282 -0.789964,-0.25202 -1.49692,-0.50672 -1.949858,-0.64795 -0.05583,-0.0174 -0.09849,-0.0276 -0.147451,-0.0412 -0.912722,-1.04388 -4.704469,-4.9306 -10.594609,-5.02828 a 16.669131,17.167922 0 0 0 0.55153,-1.06291 z m -29.414124,1.12557 a 16.669131,17.167922 0 0 0 0.199225,0.33467 c -0.170066,0.0174 -0.33639,0.0368 -0.499001,0.0582 0.119629,-0.15636 0.207909,-0.27233 0.299776,-0.39282 z m -26.208877,0.0428 c 0.08544,0.16883 0.20438,0.36384 0.380817,0.56129 0.438418,0.49061 1.223221,0.96686 2.407969,0.96686 1.894623,0 3.300645,0.71868 3.443114,0.79278 l 0.418338,0.6851 c -0.103625,0.0316 -0.177229,0.0297 -0.293775,0.0822 -0.613485,0.27607 -1.371005,0.87374 -2.063167,2.07592 -0.386475,0.67125 -0.415888,1.36318 -0.232618,1.92436 0.155408,0.47586 0.46422,0.81679 0.761634,1.12182 -0.352123,0.21263 -0.659195,0.50598 -0.860685,0.87456 -0.219104,0.4008 -0.339389,0.87899 -0.21836,1.36156 0.121038,0.48258 0.515674,0.9143 1.10606,1.13571 1.285239,0.48195 2.206681,0.53974 2.844313,0.52901 -0.106687,0.27581 -0.149136,0.34457 -0.355679,1.00551 -0.281564,0.90099 0.0045,1.58989 0.284769,2.0703 -0.118229,0.13596 -0.161106,0.3628 -0.130193,0.51625 0.03092,0.15347 0.09654,0.26034 0.175591,0.36844 0.158088,0.21622 0.395476,0.44087 0.789772,0.75451 0.496174,0.39469 1.109853,0.46293 1.63808,0.34179 0.363102,-0.0833 0.663138,-0.29448 0.972866,-0.48362 -0.753195,1.52446 -1.349096,2.88129 -1.652334,3.87984 -0.219687,0.72341 -0.337179,1.3097 -0.365811,1.78365 -0.02864,0.47396 -0.0094,0.85553 0.270887,1.17585 0.214046,0.24462 0.557662,0.35213 0.825417,0.32304 0.155612,-0.0169 0.270396,-0.0792 0.383819,-0.14182 L 10.476797,258.1792 c -0.0072,-5.1e-4 -0.01461,-1.9e-4 -0.02176,-7.3e-4 l -0.37444,-0.0296 -0.1174325,0.35305 c -0.3776258,-0.18024 -0.9465479,-0.359 -1.7442565,-0.41627 v -38.99046 z m 54.837729,0.85093 c 5.320349,-0.004 8.841683,3.321 9.925271,4.50228 0.0036,0.25145 0.09979,0.29927 0.142942,0.34705 0.08693,0.0962 0.15135,0.13497 0.246874,0.20111 1.24341,0.86081 2.870073,2.67899 2.77791,4.79867 l -0.0086,0.19735 0.132066,0.14595 c 0,0 0.630272,0.69945 1.125945,1.57392 0.247832,0.43724 0.456045,0.91534 0.53877,1.33718 0.07795,0.3974 0.04872,0.71938 -0.104296,0.98224 -0.287909,-0.32831 -2.7857,-3.16193 -5.994788,-6.26567 -3.054225,-2.95395 -6.641423,-6.07395 -9.480665,-7.28505 a 16.669131,17.167922 0 0 0 0.366935,-0.52827 c 0.110899,-0.003 0.222285,-0.007 0.331669,-0.007 z m -27.865716,0.35456 a 16.669131,17.167922 0 0 0 0.53427,0.72412 c -1.050633,0.6867 -2.152306,1.70792 -3.276906,2.92123 -1.759214,1.89796 -3.557332,4.27411 -5.175743,6.60108 -2.337994,3.36159 -4.286153,6.59685 -5.196753,8.14874 -0.106082,-0.73283 -0.230167,-1.95098 -0.174837,-3.52603 0.08875,-2.5265 0.7026,-5.51815 2.678853,-7.49441 2.146696,-2.1467 3.323915,-3.99414 4.801303,-5.26954 1.325962,-1.14468 2.903032,-1.8943 5.809813,-2.10519 z m -34.8626295,0.54928 v 43.55765 l -4.3773366,5.13447 v -47.71888 z m 61.6924465,0.11668 c 2.652051,1.1098 6.34111,4.23861 9.416883,7.2134 3.007207,2.90848 4.881071,5.06429 5.392607,5.64398 -2.281526,-0.52336 -11.14338,-3.02338 -15.516348,-11.88751 l -0.160956,0.0795 a 16.669131,17.167922 0 0 0 0.867814,-1.04941 z m -25.94662,0.53052 a 16.669131,17.167922 0 0 0 1.895457,1.95249 c -2.94339,9.06824 -12.642974,14.32845 -15.496835,15.70769 0.862887,-1.47582 2.869439,-4.82527 5.273291,-8.28157 1.609164,-2.31367 3.395939,-4.6729 5.125092,-6.53843 1.115093,-1.20304 2.212681,-2.1938 3.202995,-2.84018 z m -20.244112,0.33767 c 0.707939,0.20096 1.657879,0.46845 2.643587,0.73987 0.04531,0.0125 0.0904,0.0243 0.135818,0.0368 -1.120784,2.66376 -3.386098,4.13829 -4.170984,4.58744 -0.02726,-0.004 -0.05507,-0.006 -0.08142,-0.018 -0.146949,-0.0873 -0.319738,-0.18506 -0.529017,-0.37857 -0.27372,-0.25309 -0.524755,-0.57914 -0.635196,-0.91734 -0.110449,-0.33821 -0.113333,-0.68507 0.151951,-1.14583 0.611353,-1.06182 1.20934,-1.49196 1.624948,-1.67897 0.207795,-0.0935 0.372713,-0.12646 0.479117,-0.1377 0.106403,-0.0112 0.11931,-0.006 0.11931,-0.006 l 1.012261,0.14895 z m 12.394768,0.33092 c -1.16625,1.1365 -2.15095,2.50912 -3.558675,4.03216 -1.740736,0.16907 -3.720735,1.16672 -5.345704,2.12545 -1.510208,0.89103 -2.644343,1.72769 -2.904717,1.92285 -0.250228,0.0319 -1.399553,0.13648 -3.010147,-0.46748 -0.3701,-0.1388 -0.467712,-0.29376 -0.51176,-0.46937 -0.04405,-0.17562 -0.0023,-0.42546 0.130191,-0.66784 0.132501,-0.24238 0.35154,-0.46169 0.546276,-0.56578 0.167584,-0.0896 0.263533,-0.0741 0.358682,-0.0356 0.04779,0.0269 0.124812,0.0975 0.165834,0.1178 0.05671,0.028 0.101967,0.0493 0.172962,0.0709 0.0355,0.0108 0.05967,0.033 0.195849,0.024 0.03404,-0.002 0.136445,-0.0278 0.137319,-0.0282 3.84e-4,-1.4e-4 0.04489,-0.032 0.08742,-0.0623 0.602058,-0.31557 3.513119,-1.97997 4.853456,-5.29729 0.631594,0.17057 1.24977,0.33497 1.791905,0.47236 0.846993,0.21465 1.468828,0.36737 1.843683,0.40145 0.459231,0.0418 0.90135,-0.11522 1.459112,-0.30765 0.557761,-0.19244 1.190143,-0.44494 1.806539,-0.67947 0.616395,-0.23453 1.219117,-0.45099 1.689104,-0.56691 0.03367,-0.008 0.06046,-0.012 0.09267,-0.0192 z m 32.649759,0.17672 c 4.100738,8.14538 12.203038,11.08306 15.422922,11.95841 -0.778979,-0.0732 -1.74301,-0.28829 -2.681855,-0.55227 -1.994524,-0.56084 -3.871205,-1.32442 -3.871205,-1.32442 l -0.103554,-0.0409 -0.110677,0.007 c 0,0 -0.989501,0.0668 -2.064673,0.009 -0.53758,-0.029 -1.093776,-0.0909 -1.537152,-0.19848 -0.443377,-0.10757 -0.750585,-0.28571 -0.820915,-0.37744 -0.05968,-0.0779 -0.08547,-0.12951 -0.208607,-0.21836 -0.03078,-0.0222 -0.06972,-0.0501 -0.144447,-0.075 -0.01711,-0.006 -0.03837,-0.011 -0.06115,-0.0154 -0.600428,-0.55504 -3.901905,-3.80121 -4.367584,-8.5427 l -0.1013,0.01 a 16.669131,17.167922 0 0 0 0.650203,-0.63895 z m 25.995392,0.77776 8.940772,2.15246 v 24.69837 l -17.311624,-15.2222 c 0.03899,-0.0434 0.07638,-0.0889 0.109552,-0.1392 0.352796,-0.53487 0.385445,-1.16706 0.272017,-1.74537 -0.113436,-0.57834 -0.366888,-1.1321 -0.646456,-1.62533 -0.516488,-0.9112 -1.061552,-1.50662 -1.154456,-1.61069 0.0015,-1.78948 -0.919532,-3.13101 -1.952493,-4.19312 0.214515,0.0717 0.328364,0.11243 0.562787,0.18722 0.809414,0.25823 1.708298,0.5178 2.520152,0.65508 0.811854,0.13729 1.541956,0.2243 2.123947,-0.18309 0.576263,-0.40339 1.323143,-0.55501 2.054916,-0.64232 0.731779,-0.0873 1.416228,-0.0587 1.996382,-0.40146 0.377336,-0.22297 0.954999,-0.56323 1.466245,-0.93422 0.255623,-0.1855 0.494816,-0.37693 0.693721,-0.58155 0.124195,-0.12777 0.24063,-0.25697 0.324538,-0.41458 z m -27.419238,0.58042 c 0.781822,5.20986 4.609663,8.54211 4.721389,8.63836 0.02237,0.0673 0.04597,0.13554 0.07729,0.21724 0.155895,0.40703 0.428692,1.03121 0.734622,1.74576 0.611853,1.42909 1.350051,3.26325 1.462115,3.99164 0.134251,0.87268 0.324529,2.47182 0.608184,3.92936 0.04037,0.20743 0.08321,0.41065 0.127565,0.61044 -0.240972,-0.3579 -0.50217,-0.75026 -0.796906,-1.20323 -0.985544,-1.51466 -2.22622,-3.51097 -3.431484,-5.65224 -1.205266,-2.14127 -2.375277,-4.42892 -3.21913,-6.52155 -0.77407,-1.9196 -1.265584,-3.67961 -1.27977,-4.97576 a 16.669131,17.167922 0 0 0 0.996127,-0.78002 z m -21.013624,0.17221 a 16.669131,17.167922 0 0 0 0.891075,0.66409 c 0.291048,2.92373 -0.683337,5.65566 -1.939355,7.85497 -1.448969,2.53718 -3.280583,4.35359 -3.811553,4.81818 -0.530613,0.46429 -0.994695,0.69374 -1.79941,0.88208 -0.567758,0.13288 -1.312809,0.23443 -2.299538,0.35043 l -0.01914,-0.0383 c -0.03155,0.0158 -0.061,0.0341 -0.09117,0.0518 -0.380514,0.0443 -0.792184,0.0908 -1.251632,0.14257 -2.257896,0.25441 -3.175416,0.35971 -4.198373,0.47649 3.775882,-1.99518 11.753916,-7.03529 14.519091,-15.20231 z m 19.455462,0.99238 c 0.08926,1.36868 0.587606,3.02253 1.307161,4.80693 0.85843,2.12878 2.038663,4.43427 3.25177,6.58945 1.213097,2.1552 2.458699,4.16007 3.449869,5.68338 0.495585,0.76165 0.926807,1.40206 1.259136,1.88195 0.197808,0.28564 0.344678,0.49016 0.465614,0.65433 -0.04022,-0.01 -0.07489,-0.0173 -0.13094,-0.0345 -0.502919,-0.15362 -1.066523,-0.34324 -1.55254,-0.52753 -0.486015,-0.18428 -0.911384,-0.38008 -1.056535,-0.47498 -0.086,-0.0562 -0.493863,-0.46362 -0.915836,-0.9785 -0.421974,-0.51487 -0.90993,-1.15668 -1.370194,-1.78102 -0.92052,-1.24868 -1.732626,-2.42786 -1.732626,-2.42786 L 66.32979,236.1907 c -0.501097,-0.76495 -1.299857,-2.07878 -2.017394,-3.67311 -1.139891,-2.53275 -2.032787,-5.7397 -1.259138,-8.46878 a 16.669131,17.167922 0 0 0 0.80966,-0.51138 z m -17.557002,0.34105 a 16.669131,17.167922 0 0 0 3.401469,1.58029 c -5.585948,4.90403 -5.854367,12.05828 -5.859337,13.26296 -0.08396,0.1065 -0.38732,0.41965 -0.81191,0.72449 -0.479738,0.34443 -1.093876,0.72382 -1.694733,1.0708 -1.131944,0.65365 -2.090128,1.12884 -2.212118,1.18972 -0.155003,-0.0409 -0.511128,-0.1422 -1.03665,-0.20448 -0.314567,-0.0373 -0.629368,-0.0605 -0.941726,0.007 -0.0034,7.3e-4 -0.007,0.002 -0.01051,0.003 -0.226097,-0.55559 -0.614457,-1.6818 -0.931222,-3.52154 0.688882,-0.0873 1.264791,-0.1751 1.757389,-0.29039 0.905327,-0.21188 1.579947,-0.54034 2.21362,-1.0948 0.633316,-0.55416 2.490645,-2.39934 4.013029,-5.06507 1.21286,-2.12375 2.206529,-4.77618 2.112694,-7.66212 z m 57.396524,0.52902 4.37772,1.05427 v 28.7204 l -4.37772,-3.84945 z m -41.767622,0.23111 c -0.500656,2.85589 0.425218,5.87897 1.502635,8.27294 1.056082,2.34655 2.228901,4.02981 2.505142,4.41485 -0.02672,0.22297 -0.117306,0.95861 -0.298651,1.95962 -0.211255,1.16614 -0.544165,2.54114 -0.896329,3.21613 -0.494213,0.94723 -0.367935,1.97048 -0.175963,2.85444 0.181749,0.83691 0.383505,1.56337 0.37594,2.01777 -0.180051,-0.0497 -0.510335,-0.2267 -0.816787,-0.5474 -0.637171,-0.66681 -1.170884,-1.80296 -0.727494,-3.24014 l 0.05365,-0.1786 -0.07916,-0.16883 c 0,0 -0.226895,-0.47932 -0.474989,-1.07642 -0.248088,-0.59709 -0.514797,-1.33026 -0.584171,-1.71875 l -0.212733,-1.19385 -0.111806,0.17146 c -0.308915,-0.97654 -0.761648,-2.49112 -0.940602,-3.59469 -0.269003,-1.65885 -0.04146,-5.08473 -0.140319,-7.65462 -0.04777,-1.24182 0.0083,-1.59633 0.06791,-1.86732 0.05696,-0.25892 0.142382,-0.54994 0.12794,-1.28014 a 16.669131,17.167922 0 0 0 0.825791,-0.38645 z m -1.783277,0.74662 c -0.0078,0.35811 -0.05163,0.4597 -0.107678,0.71437 -0.07379,0.33541 -0.140058,0.82928 -0.0908,2.11007 0.09522,2.47535 -0.161189,5.84103 0.151951,7.77205 0.268704,1.65704 1.024727,3.92845 1.21149,4.47751 -0.161635,0.24669 -0.716784,1.09086 -1.422722,2.09094 -0.408379,0.57854 -0.838275,1.16483 -1.199856,1.61368 -0.18079,0.22444 -0.346147,0.41525 -0.474989,0.54741 -0.07932,0.0813 -0.08185,0.0817 -0.114808,0.10768 -0.04756,-0.0361 -0.10425,-0.0791 -0.18722,-0.17709 -0.211133,-0.24937 -0.47541,-0.67601 -0.717739,-1.19122 -0.484657,-1.03042 -0.894419,-2.42863 -0.910209,-3.61308 -0.0022,-0.16739 -0.0072,-0.2993 -0.01688,-0.40971 -0.0035,-0.0399 -0.0046,-0.0729 -0.0071,-0.10768 0.187587,-0.93027 0.483093,-2.61292 0.620938,-4.58332 0.087,-1.24352 0.113069,-2.59864 0.0049,-3.947 l 0.02626,0.007 c 0.04872,-0.17057 0.05431,-0.30031 0.08367,-0.51026 0.02933,-0.20994 0.07301,-0.48537 0.154579,-0.85243 0.163133,-0.73412 0.480085,-1.83311 1.149955,-3.43599 l -0.119684,-0.0499 a 16.669131,17.167922 0 0 0 1.965993,-0.56353 z m -9.377867,0.3917 a 16.669131,17.167922 0 0 0 0.613435,0.14183 c -1.024872,1.18257 -1.727635,3.08041 -2.250764,5.31118 -0.596993,2.5458 -0.94155,5.53321 -1.138699,8.38925 -0.280873,4.0689 -0.260603,7.83631 -0.225864,9.68852 -0.14478,-0.13309 -0.306891,-0.2753 -0.512884,-0.4401 -0.542813,-0.43425 -0.635469,-0.70311 -0.652456,-0.82392 -0.0085,-0.0604 -0.0023,-0.097 0.01013,-0.14332 0.0062,-0.0232 0.01485,-0.0466 0.02702,-0.0837 0.01216,-0.0371 0.0409,-0.0738 0.0409,-0.22098 0,0.11648 -0.0049,0.0585 0,0.0338 0.0049,-0.0247 0.01268,-0.0644 0.02289,-0.11481 0.0204,-0.10078 0.0493,-0.24344 0.07654,-0.41533 0.05446,-0.34378 0.107167,-0.80784 0.09793,-1.33005 -0.01848,-1.04442 -0.293065,-2.35786 -1.354435,-3.3013 -0.759917,-0.67548 -0.86295,-1.73911 -0.799529,-2.57943 0.03171,-0.42015 0.10229,-0.76359 0.141821,-0.96123 0.0099,-0.0494 0.01856,-0.087 0.02551,-0.13507 0.0035,-0.024 0.0085,-0.0421 0.0057,-0.11481 -7.99e-4,-0.0182 -7.99e-4,-0.0399 -0.0071,-0.0735 -0.0032,-0.0168 -0.0079,-0.0369 -0.01575,-0.0611 -0.0079,-0.0242 -0.0381,-0.0875 -0.03827,-0.0878 -4.4e-5,-8e-5 -0.01445,-0.0181 -0.02326,-0.0293 0.06984,-1.84704 0.695624,-8.34761 5.974897,-12.62701 z m 1.268517,0.28703 a 16.669131,17.167922 0 0 0 1.293279,0.16171 c 0.459711,1.28993 0.425829,3.37809 0.05627,5.77567 -0.392163,2.5443 -1.141547,5.44152 -1.966744,8.16937 -1.27857,4.22657 -2.476188,7.34255 -3.068677,8.84848 -0.03812,-1.61867 -0.08789,-4.96208 0.215733,-9.36061 0.195866,-2.83741 0.540596,-5.80084 1.125944,-8.29695 0.553183,-2.35893 1.339386,-4.29207 2.344187,-5.29767 z m -22.575541,0.039 c -1.633619,1.88848 -2.274403,4.35033 -2.482255,6.57558 l -0.604806,-0.40896 c 0,0 -0.547955,0.67349 -1.24788,1.1886 -0.349963,0.25756 -0.733457,0.46524 -1.060663,0.54028 -0.13435,0.0308 -0.226593,-0.055 -0.338796,-0.0638 l -0.825416,-1.01414 c 0,0 -0.707388,-0.96539 -0.462233,-1.74988 0.290425,-0.92937 0.468192,-1.36194 0.520761,-1.48688 0.252152,-0.18889 1.350382,-0.99827 2.813175,-1.86132 1.145237,-0.67569 2.489863,-1.34708 3.688113,-1.71949 z m 27.760287,0.001 c -0.329081,0.82329 -0.569887,1.51974 -0.740248,2.09281 -0.167192,-0.67654 -0.387335,-1.32914 -0.668588,-1.94236 a 16.669131,17.167922 0 0 0 1.408836,-0.15045 z m -3.267903,0.17109 a 16.669131,17.167922 0 0 0 0.813038,0.0296 c 1.189172,2.30621 1.348533,5.60178 1.155209,8.36523 -0.126291,1.80521 -0.390386,3.37252 -0.572165,4.30118 -0.01782,0.0249 -0.03179,0.0479 -0.04315,0.0649 -0.07946,0.11873 -0.09379,0.18639 -0.124939,0.27951 -0.124588,0.37249 -0.270866,1.01922 -0.480617,1.79678 -0.209753,0.77756 -0.47521,1.66353 -0.791275,2.40647 -0.316073,0.74296 -0.711712,1.3261 -1.004007,1.51014 -0.995643,0.62689 -1.467642,1.31291 -1.779527,1.95961 -0.311883,0.6467 -0.48716,1.2182 -0.984121,1.85495 -0.608992,0.78026 -1.158509,1.01726 -1.519144,1.09667 0.56075,-1.41962 2.0263,-5.23244 3.348193,-9.60223 0.829933,-2.74347 1.586555,-5.66062 1.985505,-8.24892 0.355787,-2.30826 0.441789,-4.34857 -0.003,-5.81394 z m 17.495848,5.41435 c 0.08326,0.0239 0.130905,0.0955 0.216859,0.11632 0.537478,0.1304 1.140143,0.19303 1.713117,0.22399 1.086346,0.0587 1.967972,-0.002 2.067672,-0.009 0.09324,0.0378 1.864185,0.75933 3.873832,1.32442 1.030907,0.28987 2.097403,0.53295 3.016152,0.59993 0.459377,0.0335 0.882461,0.0254 1.263637,-0.0608 0.204401,-0.0463 0.403909,-0.11941 0.580415,-0.22886 l 17.594524,17.21783 v 4.24939 l -0.26376,0.0687 c -0.1955,0.0507 -0.87725,-0.10994 -1.4306,-0.36844 -0.553351,-0.2585 -1.001374,-0.5474 -1.001374,-0.5474 l -0.113312,-0.0724 -1.837678,-0.0526 -3.121202,-1.96261 0.01423,-0.49901 -0.127942,-0.14332 c -0.428776,-0.47923 -1.136044,-0.80037 -1.785157,-1.09181 -0.537093,-0.24114 -0.859954,-0.3567 -1.011136,-0.4127 l -0.185713,-0.47799 -0.123441,-0.0837 c -0.980832,-0.66874 -1.784743,-1.01292 -2.355066,-1.18823 -0.351888,-0.10815 -0.42439,-0.094 -0.587168,-0.1118 l -0.140321,-0.39433 -0.08817,-0.081 c -0.446192,-0.40794 -1.061813,-0.56884 -1.595312,-0.69598 -0.384749,-0.0917 -0.550379,-0.10776 -0.711734,-0.13056 l -0.236746,-0.51326 -1.564165,0.0653 -0.07391,-0.42434 -0.344424,-0.0495 c -0.09519,-0.0137 -0.193598,-0.0222 -0.294902,-0.0263 -0.709098,-0.0282 -1.555402,0.16774 -2.362566,0.40071 -0.461236,0.13312 -0.899566,0.28446 -1.264762,0.42959 -0.365189,0.14512 -0.63953,0.265 -0.856564,0.42284 -0.575957,0.41889 -0.797108,0.71364 -2.600815,1.90409 -0.779051,0.51418 -2.04862,0.76668 -3.262646,0.83404 -1.214021,0.0674 -2.377129,-0.0343 -2.938487,-0.11931 -0.371548,-0.0563 -1.435449,-0.62467 -2.281528,-1.18822 -0.640044,-0.42633 -1.091509,-0.763 -1.324795,-0.93948 0.0075,-0.0357 0.01318,-0.0716 0.01613,-0.10693 0.06607,-0.79275 -0.238928,-1.60068 -0.415709,-2.41472 -0.176784,-0.81402 -0.239774,-1.57429 0.08929,-2.20499 0.471103,-0.90295 0.77259,-2.28925 0.990126,-3.49002 0.09974,-0.55053 0.09661,-0.6204 0.151576,-1.00963 0.324748,0.46325 0.493227,0.71692 1.055034,1.47899 0.465918,0.63201 0.961068,1.28256 1.400959,1.8193 0.439897,0.53674 0.773131,0.939 1.133071,1.17435 0.30079,0.19667 0.728759,0.37428 1.240754,0.56841 0.511985,0.19412 1.091806,0.38949 1.613695,0.5489 0.521897,0.1594 0.975227,0.28179 1.283524,0.33767 0.07707,0.0139 0.144162,0.0241 0.219481,0.0282 0.03768,0.002 0.07725,0.004 0.135072,-0.003 0.05779,-0.007 0.143965,-0.002 0.283263,-0.12456 0.06963,-0.0613 0.142782,-0.17474 0.16171,-0.29227 0.01895,-0.11755 -0.0088,-0.21575 -0.03674,-0.27914 -0.05583,-0.12679 -0.107221,-0.16207 -0.145947,-0.19586 -0.07746,-0.0676 -0.134811,-0.0997 -0.211234,-0.14181 -0.01663,-0.009 -0.258955,-0.30524 -0.434097,-0.79841 -0.175149,-0.49318 -0.335472,-1.15269 -0.472359,-1.85606 -0.273781,-1.40676 -0.460888,-2.98151 -0.601057,-3.8926 -0.162363,-1.05535 -0.915553,-2.78754 -1.530025,-4.22276 -0.162764,-0.38016 -0.252551,-0.6029 -0.381568,-0.90758 z m -44.514008,1.53903 c -0.0125,0.19552 -0.02259,0.38927 -0.02927,0.57929 -0.02554,0.72707 -0.0091,1.40656 0.02626,2.0204 -0.655799,0.65158 -1.135281,1.72649 -1.52252,2.68749 -0.362822,0.9004 -0.580798,1.60711 -0.627693,1.76077 -0.062,0.0646 -0.178507,0.18123 -0.329415,0.28026 -0.09484,0.0623 -0.182231,0.0934 -0.215735,0.0994 -0.0062,-0.0377 -0.06085,-0.20192 -0.0439,-0.48249 0.02175,-0.36004 0.121599,-0.88824 0.326414,-1.56267 0.386011,-1.27111 1.148919,-3.07369 2.415847,-5.38248 z m 0.126813,4.06331 c 0.08623,0.70781 0.166387,1.119 0.184594,1.21036 l -1.419719,1.66547 c 0.105264,-0.3183 0.252166,-0.74252 0.47349,-1.29178 0.21675,-0.5379 0.49014,-1.11281 0.761635,-1.58405 z m 7.252043,0.91884 c -0.281908,0.39643 -0.560113,0.84339 -0.813037,1.2794 -0.53368,0.92001 -0.924571,1.7207 -0.973993,1.8223 -0.07908,0.0806 -0.683873,0.69862 -1.285024,1.44072 -0.32065,0.39584 -0.627646,0.81047 -0.839299,1.20248 -0.0094,0.0174 -0.01234,0.0352 -0.02139,0.0526 -0.398945,-0.5691 -0.769919,-1.41531 -0.524515,-2.44024 0.03932,-0.16422 0.06576,-0.29533 0.07804,-0.41683 0.01228,-0.12149 0.08431,-0.21991 -0.0953,-0.481 -0.0898,-0.13053 -0.344427,-0.24056 -0.500503,-0.21686 -0.156078,0.0237 -0.222913,0.0822 -0.276515,0.12495 -0.107223,0.0855 -0.161389,0.16194 -0.229618,0.25512 -0.272912,0.37275 -0.623192,1.02031 -1.023893,1.80654 -0.277743,0.54499 -0.425633,0.94593 -0.701978,1.53002 0.101838,-0.43489 0.186945,-0.87453 0.30653,-1.27601 0.224565,-0.75393 0.493831,-1.40708 0.68472,-1.67185 0.137073,-0.19014 0.226972,-0.3216 0.292273,-0.4356 0.03265,-0.057 0.062,-0.095 0.0908,-0.20973 0.0144,-0.0573 0.0511,-0.14886 -0.02138,-0.32341 -0.07248,-0.17455 -0.335544,-0.30345 -0.460733,-0.30203 -0.250378,0.003 -0.257428,0.0676 -0.308032,0.0994 -0.05061,0.0318 -0.09152,0.0633 -0.137319,0.099 -0.0916,0.0714 -0.196344,0.16012 -0.313658,0.26114 -0.234628,0.20204 -0.520022,0.4533 -0.793903,0.67046 -0.261607,0.20744 -0.514759,0.36875 -0.635196,0.42284 -0.01936,-0.0375 -0.05419,-0.0959 -0.07954,-0.22136 -0.01394,-0.069 -0.02355,-0.14003 -0.03076,-0.20935 l 1.645207,-2.09469 0.0049,0.0232 0.434094,-0.0495 c 0,0 2.95996,-0.33947 6.403738,-0.7275 0.04538,-0.005 0.08073,-0.009 0.125315,-0.0142 z m 1.002507,0.26601 c 0.474891,2.54383 1.09641,3.78425 1.142077,3.87308 7.99e-4,0.01 5.31e-4,0.0198 0.0019,0.0293 0.05865,0.4301 0.276168,1.55689 0.428092,2.78916 0.138414,1.12269 0.14803,2.22651 0.03264,2.83306 -0.008,-0.007 -0.0046,-0.001 -0.01276,-0.008 -0.323907,-0.28742 -0.79631,-0.872 -1.256135,-1.5229 -0.459822,-0.65089 -0.919223,-1.37372 -1.277895,-1.97274 -0.358673,-0.59902 -0.635375,-1.12977 -0.662211,-1.19685 -0.180048,-0.45013 -0.273177,-1.33802 -0.299026,-1.61445 0.07631,-0.15552 0.428196,-0.86805 0.918841,-1.71387 0.273391,-0.47129 0.576527,-0.95628 0.859183,-1.33867 0.04187,-0.0566 0.08352,-0.10527 0.125314,-0.15683 z m 8.463904,1.56379 c -0.04378,0.96422 0.08315,2.23975 1.103058,3.14634 0.790997,0.70311 1.015203,1.70561 1.031022,2.59931 0.0079,0.44685 -0.03672,0.85689 -0.08517,1.16272 -0.02423,0.15292 -0.04865,0.27932 -0.06791,0.37444 -0.0096,0.0476 -0.01867,0.087 -0.02551,0.12193 -0.0038,0.0193 -0.008,0.0391 -0.01163,0.0649 3.84e-4,0.002 0.0023,-7e-5 3.76e-4,0.006 -3.84e-4,0.001 -0.0015,0.005 -0.0019,0.007 1.92e-4,-0.001 1.63e-4,-0.004 3.74e-4,-0.007 -5.76e-4,0.004 -0.0013,0.005 -0.0019,0.0105 -0.0082,0.0248 -0.02238,0.0665 -0.0379,0.12419 -0.03365,0.12523 -0.06424,0.312 -0.03414,0.52602 0.0602,0.42805 0.346211,0.91449 1.004008,1.44073 0.577219,0.46178 0.827935,0.75447 0.917713,0.88769 0.01754,0.0261 0.0099,0.0153 0.01689,0.0285 l -0.09793,0.44234 0.08404,0.002 -3.37108,13.30123 c -4.938255,-1.47161 -11.581189,-2.77679 -19.088902,-2.47325 -0.101431,-0.0976 -0.27595,-0.25865 -0.443099,-0.54515 -0.109611,-0.18788 -0.172448,-0.37698 -0.172963,-0.49938 -5.76e-4,-0.1224 0.01143,-0.18974 0.178589,-0.31891 0.204854,-0.1583 0.38457,-0.4121 0.37444,-0.70611 -0.01012,-0.294 -0.181818,-0.50389 -0.353054,-0.64533 -0.34247,-0.28285 -0.79688,-0.42983 -1.321793,-0.53014 -0.524913,-0.1003 -1.113243,-0.13219 -1.67447,-0.0514 -0.506658,0.0729 -0.978527,0.28364 -1.358563,0.62694 -0.0222,-0.0301 -0.02599,-0.0249 -0.07504,-0.13882 -0.157954,-0.36694 -0.309123,-1.07346 -0.37894,-1.81817 -0.06982,-0.74471 -0.06708,-1.54295 0.01876,-2.1382 0.04292,-0.29763 0.109307,-0.54542 0.17559,-0.69073 0.06629,-0.1453 0.113222,-0.14552 0.06378,-0.13169 0.159778,-0.0447 0.258514,-0.0739 0.357557,-0.1163 0.04952,-0.0212 0.08816,0.0309 0.245373,-0.18723 0.01965,-0.0272 0.04106,-0.0624 0.05928,-0.10918 0.0091,-0.0234 0.02282,-0.0777 0.02289,-0.078 7.7e-5,-3.9e-4 0.0098,-0.0946 0.0098,-0.0949 4e-6,-7.2e-4 -0.04061,-0.19783 -0.0409,-0.19847 -1.42e-4,-3.9e-4 -0.04519,-0.0807 -0.0454,-0.081 -1.93e-4,-3.9e-4 -0.03306,-0.0434 -0.0499,-0.0608 -0.134773,-0.1392 -0.209712,-0.13162 -0.25663,-0.14183 -0.09383,-0.0204 -0.146805,-0.0242 -0.187969,-0.0218 -0.04117,0.002 -0.07029,0.0107 -0.116683,0.0142 v 3.7e-4 c -0.09278,0.007 -0.198792,0.0185 -0.313661,0.0327 -0.45947,0.0566 -1.055032,0.15458 -1.055032,0.15458 l -0.164333,0.0266 -0.113309,0.12344 c 0,0 -1.15052,1.25594 -2.755393,2.47587 -0.96007,0.72981 -2.081055,1.4246 -3.176729,1.83956 l 12.406397,-15.79661 c 0.04226,0.0737 0.0912,0.14651 0.156453,0.21649 0.219298,0.23518 0.663561,0.3363 1.008136,0.19847 0.212346,-0.0849 0.407346,-0.24367 0.605555,-0.3887 -0.07614,0.21842 -0.179159,0.3516 -0.251001,0.5928 -0.237454,0.79721 -0.442298,1.68785 -0.596927,2.48713 -0.154629,0.79928 -0.258341,1.49731 -0.290771,1.94011 -0.0081,0.1107 -0.01161,0.20464 -0.0086,0.2949 0.0015,0.0452 0.0029,0.0882 0.01276,0.14332 0.0098,0.0551 0.0076,0.12182 0.10918,0.25213 0.0508,0.0651 0.15192,0.15237 0.289272,0.18159 0.137351,0.0293 0.269792,-0.01 0.344799,-0.051 0.150014,-0.0831 0.171456,-0.15049 0.202602,-0.19997 0.06229,-0.099 0.09092,-0.17575 0.130567,-0.28478 0.250166,-0.68795 1.194383,-2.76627 1.979501,-4.3068 0.116645,-0.22888 0.172141,-0.29626 0.280641,-0.49787 0.08972,0.82043 0.333283,1.55626 0.680971,2.03915 0.258386,0.35887 0.509553,0.60793 0.706106,0.75901 0.04914,0.0378 0.09433,0.0701 0.153077,0.10206 0.02938,0.016 0.06062,0.0322 0.116309,0.0495 0.05569,0.0173 0.140657,0.067 0.33617,-0.0101 0.09776,-0.0386 0.211412,-0.13782 0.262259,-0.2465 0.05084,-0.10869 0.05073,-0.2021 0.0439,-0.26376 -0.01366,-0.1233 -0.04515,-0.16537 -0.06679,-0.2041 -0.02066,-0.037 -0.04038,-0.0546 -0.05928,-0.0795 0.01229,-0.0557 0.05383,-0.17184 0.130192,-0.31327 0.158169,-0.29298 0.439155,-0.68223 0.740248,-1.05392 0.303613,-0.3748 0.399255,-0.4544 0.643825,-0.71886 0.05214,0.40456 0.02065,0.59957 0.188723,1.01977 0.110369,0.27593 0.360921,0.71495 0.730118,1.33155 0.369196,0.61659 0.838443,1.3563 1.317666,2.03465 0.479222,0.67835 0.955627,1.28961 1.402458,1.6861 0.223417,0.19825 0.425934,0.36837 0.751505,0.41421 0.162786,0.023 0.376619,-0.0141 0.533145,-0.13206 0.156527,-0.118 0.239067,-0.2786 0.286271,-0.4311 0.282913,-0.91403 0.156803,-2.23917 0,-3.51103 -0.145535,-1.18044 -0.334017,-2.18558 -0.398452,-2.60043 0.124051,-0.0133 0.306376,-0.0211 0.530519,0.006 0.528596,0.0627 1.09893,0.21836 1.09893,0.21836 l 0.177088,0.0484 0.16471,-0.081 c 0,0 1.16816,-0.5808 2.401963,-1.29328 0.616903,-0.35624 1.25027,-0.74438 1.773898,-1.12031 0.08598,-0.0617 0.110431,-0.12806 0.190221,-0.18684 z m 1.942732,7.47565 c 3.84e-4,-0.003 7.26e-4,-0.004 0.0012,-0.006 -3.84e-4,-0.002 9.44e-4,-0.009 -3.74e-4,-0.005 -3.85e-4,0.001 -5.59e-4,0.007 -7.26e-4,0.0113 z m 15.974078,-5.92011 c 0.113682,0.32254 0.187888,0.63302 0.31366,0.93572 0.227089,0.54655 0.386758,0.88555 0.433718,0.98562 -0.184077,0.719 -0.176765,1.39228 -0.04765,1.99414 -0.207818,-0.0571 -0.456027,-0.14754 -0.691099,-0.24425 -0.481762,-0.19819 -0.898955,-0.41421 -0.898955,-0.41421 l -0.239747,-0.12344 -0.229615,0.13882 c -0.135515,0.0818 -0.654923,0.16303 -1.09893,0.15458 -0.0055,-1.1e-4 -0.01023,-5.6e-4 -0.01576,-7.2e-4 0.06944,-0.0819 0.139228,-0.16425 0.212734,-0.25551 0.384516,-0.47732 0.821738,-1.07433 1.236625,-1.66209 0.541356,-0.76691 0.740339,-1.07937 1.025018,-1.50863 z m -7.507921,3.46074 -0.03677,0.44198 -0.234118,5.48415 -0.352302,0.87944 0.309906,0.11706 -0.676466,15.84577 c 0,0 -3.036153,-1.67524 -8.080086,-3.26453 l 2.864574,-13.57099 0.08892,0.002 c 0,0 1.609454,0.001 2.825928,-1.55703 0.600738,-0.7697 0.820533,-1.46692 1.091803,-2.02941 0.271269,-0.56249 0.570131,-1.02438 1.426846,-1.56378 0.306316,-0.19288 0.555645,-0.46473 0.771766,-0.78491 z m -23.897333,0.036 c 0.01957,0.0432 -1.89e-4,0.0854 0.02964,0.12606 -0.01178,-0.022 -0.02434,-0.0302 -0.03264,-0.10505 -5.76e-4,-0.005 0.0034,-0.0158 0.003,-0.021 z m 30.181385,0.66371 c 0.0848,0.0433 0.398793,0.20661 0.867814,0.39957 0.263951,0.1086 0.548101,0.21417 0.822791,0.28815 0.201311,0.0542 0.38924,0.10243 0.597677,0.0964 0.187915,0.36789 0.419959,0.68821 0.670089,0.94997 0.418931,0.43842 0.867433,0.73525 1.328547,0.84118 0.143866,0.033 0.297634,0.0491 0.452855,0.024 0.152352,0.11674 0.716464,0.54626 1.484249,1.05766 0.663619,0.44203 1.374279,0.90611 2.039532,1.16159 -0.0352,0.0198 -0.06919,0.0376 -0.105428,0.0592 -0.593898,0.35546 -1.320322,0.97964 -2.000889,1.98813 -1.357559,2.01174 -2.524242,5.5424 -2.098434,11.49694 -0.403646,0.24634 -0.658622,0.50962 -0.780394,0.72074 -0.63813,-0.19549 -1.257864,-0.32449 -1.656089,-0.25812 -0.330672,0.0551 -0.412402,0.13041 -0.547402,0.20297 -0.198599,-0.0978 -0.387602,-0.20819 -0.622439,-0.26076 -0.354037,-0.0793 -0.74793,-0.13122 -1.121818,-0.16883 -0.593127,-0.0597 -0.925818,-0.0635 -1.125943,-0.0694 -0.386063,-0.92934 -0.736437,-1.62455 -0.989752,-1.96262 -0.145214,-0.19381 -0.268054,-0.31906 -0.372937,-0.40295 -0.05242,-0.042 -0.100256,-0.0727 -0.143324,-0.0964 -0.04305,-0.0237 -0.113306,-0.0495 -0.113306,-0.0495 l -0.03414,-0.0101 -0.527518,-0.0848 c 0.04676,-0.17725 0.0669,-0.21739 0.115183,-0.45661 0.05213,-0.25845 0.09638,-0.52824 0.106178,-0.78302 0.0051,-0.12739 0.003,-0.25077 -0.02251,-0.38269 -0.02527,-0.13192 -0.06772,-0.29149 -0.231118,-0.43672 -0.26962,-0.23967 -0.415625,-0.25889 -0.617186,-0.33917 0.08922,-0.25672 0.229991,-0.53869 0.229991,-1.2235 0,-0.3192 -0.131986,-0.61428 -0.317786,-0.80553 -0.185793,-0.19126 -0.40398,-0.29164 -0.598427,-0.35456 -0.127391,-0.0412 -0.134873,-0.0191 -0.243875,-0.0353 0.0281,-0.10639 0.05216,-0.25097 0.380068,-0.60406 l 0.409707,-0.44122 -0.633696,-0.36731 0.747379,-1.45049 -0.238244,-0.24837 c 0,0 -0.171453,-0.17946 -0.41421,-0.35568 -0.06406,-0.0465 -0.133822,-0.0956 -0.209357,-0.14295 0.06076,-0.10465 0.11983,-0.2189 0.169586,-0.34217 0.107664,-0.26672 0.187573,-0.59757 0.08104,-0.95299 -0.05866,-0.19584 -0.29794,-0.30261 -0.466736,-0.4521 l 0.924843,-2.30591 -0.01576,-0.12344 c 0,0 -0.02996,-0.28213 -0.175963,-0.58267 -0.0036,-0.008 -0.01431,-0.016 -0.01838,-0.024 0.485814,-0.195 1.076969,-0.49696 1.618194,-1.06366 l 0.246501,-0.25813 -0.177091,-0.31066 c 0,0 -0.09317,-0.14932 -0.159079,-0.25662 0.115214,-0.0241 0.114294,-0.0147 0.239744,-0.0465 0.279692,-0.0712 0.574248,-0.16203 0.843802,-0.28665 0.148737,-0.0688 0.258636,-0.21488 0.389823,-0.32041 0.119077,0.0155 0.344486,0.0502 0.760134,0.0582 0.397019,0.008 0.835442,-0.0858 1.253509,-0.22811 z m 22.152699,1.20098 0.08105,0.46636 1.76376,-0.0724 0.183092,0.39733 0.26676,0.0327 c 0,0 0.404918,0.0483 0.87907,0.16133 0.445939,0.10627 0.913601,0.30233 1.100432,0.44272 l 0.242373,0.68472 h 0.338797 c 0,0 0.193416,-0.006 0.669341,0.14032 0.450491,0.13847 1.146063,0.45414 1.984003,1.00701 l 0.219858,0.56842 0.205607,0.0739 c 0,0 0.542567,0.1963 1.154085,0.47086 0.557662,0.25038 1.110916,0.58854 1.33455,0.78115 l -0.01692,0.59842 3.807429,2.39371 1.854559,0.0526 c 0.100345,0.0635 0.435034,0.28086 0.981499,0.53615 0.405794,0.18957 0.860154,0.33814 1.327044,0.4052 -0.0285,0.0131 0.005,0.0511 -0.0792,0.0582 l -1.56567,0.13057 2.41772,1.3533 v 14.6643 c -9.986446,-15.05836 -23.284253,-19.96096 -29.04006,-21.44135 1.231779,-0.0868 2.527239,-0.32878 3.505399,-0.97437 1.834679,-1.21089 2.146294,-1.57116 2.637588,-1.92846 0.04981,-0.0362 0.314294,-0.17611 0.645323,-0.30766 0.331029,-0.13155 0.745284,-0.27386 1.176971,-0.39845 0.73782,-0.21296 1.443984,-0.2958 1.92547,-0.29641 z m -12.941042,3.86408 c 0.09887,0.11435 4.680606,5.41737 9.811585,12.72418 4.881281,6.95122 10.195853,15.65202 12.44767,23.16759 h -5.905486 c -0.783684,-2.25002 -2.995641,-3.68206 -3.253645,-3.84569 -0.110699,-0.79712 -0.486205,-1.54245 -0.873444,-2.11719 -0.413913,-0.61433 -0.791241,-1.00992 -0.822788,-1.04341 -0.07159,-0.18376 -0.146499,-0.3416 -0.276511,-0.56466 -0.1695,-0.29082 -0.38061,-0.63042 -0.5883,-0.95711 -0.405978,-0.63842 -0.786072,-1.20984 -0.803657,-1.23625 -0.06237,-0.12295 -0.131078,-0.17489 -0.196226,-0.23261 -0.07863,-0.0697 -0.162472,-0.13168 -0.255129,-0.19436 -0.185306,-0.12535 -0.402398,-0.25126 -0.615308,-0.36881 -0.262804,-0.14508 -0.357392,-0.18766 -0.51476,-0.26638 l 0.263754,-1.68611 -0.0044,-0.054 c -0.0371,-0.53805 -0.397759,-0.81597 -0.673464,-1.04491 -0.163206,-0.13552 -0.217303,-0.16059 -0.320414,-0.22698 l -0.133562,-1.73864 -0.655088,-0.74437 c -0.06825,-1.19334 -0.41896,-2.05828 -0.80553,-2.59069 -0.317946,-0.43789 -0.532265,-0.5408 -0.674967,-0.63257 -0.311441,-1.51682 -0.913151,-2.5324 -1.475996,-3.13658 -0.472534,-0.50725 -0.772982,-0.6202 -0.933095,-0.69785 -0.446557,-1.48044 -1.05937,-2.26814 -1.65196,-2.6147 -0.308966,-0.18069 -0.601216,-0.24476 -0.81979,-0.25814 -0.06215,-0.004 -0.06158,0.007 -0.114809,0.0102 -0.464068,-0.49904 -0.994271,-0.75477 -1.422343,-0.78152 -0.28872,-0.018 -0.526994,0.033 -0.685472,0.0795 -0.363329,-0.0827 -0.728196,-0.0198 -0.987875,0.1587 -0.300855,0.20684 -0.459959,0.50038 -0.565785,0.77289 -0.167591,0.43155 -0.165905,0.7052 -0.175591,0.86781 -0.262961,0.13625 -0.55151,0.25889 -0.692223,0.4765 -0.147504,0.2281 -0.227019,0.47107 -0.271263,0.70573 -0.167628,-5.05278 0.900482,-8.07431 2.069548,-9.80671 0.635867,-0.94226 1.301697,-1.50628 1.817793,-1.81517 0.258049,-0.15444 0.48017,-0.24461 0.631068,-0.28514 0.06012,-0.0161 0.09655,-0.0198 0.127565,-0.0225 z m 0.900455,0.18572 c 2.101686,0.31875 19.008417,3.36188 31.189896,22.35193 v 13.35412 h -9.230417 c -2.258082,-7.68022 -7.642964,-16.4742 -12.57636,-23.49963 -4.746448,-6.75921 -8.657532,-11.35852 -9.383119,-12.20642 z m 33.111246,1.7465 4.37772,4.28429 v 36.13078 l -4.37772,-5.81432 z m -84.566263,1.49514 c -0.06684,0.20862 -0.138925,0.4112 -0.174088,0.65508 -0.102156,0.7085 -0.09861,1.55903 -0.02288,2.3667 0.07572,0.80766 0.216278,1.55723 0.452479,2.10594 0.118099,0.27435 0.240359,0.5251 0.541399,0.68922 0.150517,0.082 0.363912,0.11605 0.546276,0.0664 0.182362,-0.0497 0.320549,-0.15786 0.431093,-0.27801 0.166847,-0.18136 0.505505,-0.33224 0.934222,-0.39395 0.428717,-0.0617 0.929929,-0.0378 1.35706,0.0439 0.397847,0.076 0.702486,0.21752 0.829545,0.30503 -0.286803,0.27646 -0.489156,0.62232 -0.487746,0.95711 0.0015,0.37885 0.143508,0.70422 0.303529,0.97849 0.113287,0.19419 0.217552,0.33072 0.311407,0.43898 -0.393928,-0.12088 -0.847437,-0.18177 -1.350684,-0.19247 -0.727148,-0.0155 -1.554751,0.0714 -2.443609,0.22285 -1.777719,0.30296 -3.79773,0.88199 -5.705887,1.5199 -2.75176,0.91995 -5.2488291,1.95441 -6.43938,2.46462 v -2.85932 l 3.382335,-4.30681 c 1.699349,-0.26974 3.371898,-1.27927 4.728892,-2.31079 1.59772,-1.2145 2.6257,-2.34145 2.738133,-2.46312 0.0094,-0.001 0.05431,-0.008 0.06791,-0.01 z m -10.9172704,4.80055 c 0.6015698,0.0504 1.0054189,0.17691 1.2662663,0.29302 l -1.2662663,1.485 z m 60.1447874,1.59906 c 0.258193,0.0161 0.577799,0.10194 0.931596,0.59017 l 0.195474,0.26938 0.320787,-0.0882 c 0,0 0.0025,-0.005 0.09042,0 0.088,0.005 0.221546,0.0289 0.392825,0.12906 0.342565,0.20034 0.868521,0.73505 1.276395,2.19524 l 0.06378,0.22961 0.222487,0.0882 c 0,0 0.339686,0.125 0.805536,0.62507 0.465847,0.50007 1.015928,1.35343 1.283523,2.80492 l 0.04088,0.23112 0.207109,0.10805 c 0,0 0.24074,0.11607 0.544397,0.53427 0.30365,0.41821 0.632734,1.11271 0.656584,2.25752 l 0.0044,0.17596 0.643827,0.73162 0.139944,1.8313 c -1.866037,-0.14369 -5.992427,-0.29924 -10.324093,0.61268 -5.86583,1.23491 -6.003191,2.50418 -8.850351,2.22976 0,0 -0.660926,-5.28499 0.05402,-13.09975 0.214033,0.33149 0.509342,0.88505 0.87044,1.81629 l 0.11631,0.2994 0.321912,0.007 c 0,0 0.63977,0.0131 1.341303,0.0837 0.350771,0.0353 0.716149,0.085 1.00851,0.15045 0.29236,0.0654 0.518209,0.18063 0.515886,0.17859 l 0.288146,0.25101 0.309156,-0.22249 c 0,0 0.100893,-0.0854 0.423964,-0.13919 0.323086,-0.0539 0.828292,-0.0512 1.539779,0.25812 l 0.422839,0.18422 0.201102,-0.41534 c 0,0 0.473295,-0.8812 1.222368,-1.004 l 0.52339,-0.0863 -0.136195,-0.51063 c 0,0 -0.105638,-0.42374 -0.06941,-0.84643 0.01808,-0.21133 0.07261,-0.40781 0.160205,-0.54327 0.0876,-0.13548 0.191728,-0.22785 0.429592,-0.28364 l 0.357557,-0.0837 0.01276,-0.36731 c 0,0 0.02433,-0.44434 0.155705,-0.78265 0.06571,-0.16914 0.154909,-0.28826 0.214232,-0.32904 0.05932,-0.0408 0.09068,-0.0693 0.290774,0.003 l 0.184217,0.0664 0.17859,-0.0822 c 0,0 0.159011,-0.0743 0.417211,-0.0582 z m -45.638453,1.73563 c 0.673767,0.01 1.240315,0.10322 1.653837,0.29565 -0.719309,0.54052 -1.067214,1.35332 -1.164589,2.05566 -0.07597,0.54796 -0.02771,0.75663 -0.0041,1.01527 -0.246808,0.0182 -0.516478,-0.0507 -0.720364,0.0537 -0.38527,0.19732 -0.689037,0.49261 -0.938723,0.79128 -0.440247,0.52661 -0.638041,0.97128 -0.697855,1.0978 -0.614405,0.24501 -1.291116,0.65942 -1.881576,1.07492 -0.472704,0.33264 -0.662095,0.48849 -0.845302,0.6322 -0.10232,-0.0846 -0.153044,-0.2433 -0.266385,-0.28477 -0.301266,-0.11025 -0.59588,-0.10204 -0.856557,-0.0683 -0.324625,0.042 -0.422566,0.10234 -0.596926,0.16734 -0.376916,-0.54599 -0.922534,-0.92836 -1.439229,-1.14696 -0.638819,-0.27025 -1.212613,-0.37444 -1.212613,-0.37444 l -0.279517,-0.0526 -0.180091,0.22099 c -0.625403,0.77058 -1.232463,1.11315 -1.800911,1.24225 -0.568448,0.12909 -1.12084,0.0414 -1.6249455,-0.14745 -0.8200951,-0.30711 -1.4391552,-0.85212 -1.6504601,-1.05279 v -1.28801 c 1.121584,-0.4832 3.7160006,-1.56644 6.5598176,-2.51716 1.897106,-0.63421 3.904466,-1.20861 5.649605,-1.50601 0.842164,-0.14352 1.623146,-0.21813 2.296912,-0.2086 z m 5.251907,0.75 c 3.428165,0.0317 9.585501,0.46289 15.824751,2.75089 l -5.27892,20.82828 H 8.2189066 v -17.56975 c 0.3492003,0.25023 0.7932841,0.51892 1.3131646,0.7136 0.6305418,0.23613 1.3830608,0.36445 2.1749738,0.1846 0.704259,-0.15994 1.41463,-0.61711 2.080427,-1.34018 0.142127,0.0308 0.382662,0.0721 0.805533,0.251 0.531463,0.22484 1.049745,0.58729 1.199481,0.9755 l 0.181592,0.47236 0.460733,-0.20711 c 0,0 0.351716,-0.1488 0.692226,-0.19284 0.170254,-0.022 0.325973,-0.01 0.402577,0.0184 0.0766,0.028 0.08725,0.0238 0.120436,0.13319 l 0.205603,0.67947 0.554531,-0.44385 c 0,0 0.491696,-0.39564 1.11469,-0.83405 0.622992,-0.4384 1.402473,-0.91734 1.823423,-1.05766 l 0.198849,-0.0668 0.08629,-0.18985 c 0,0 0.256786,-0.55226 0.653581,-1.0269 0.198399,-0.23732 0.429918,-0.44595 0.641199,-0.55415 0.211281,-0.10821 0.374375,-0.13328 0.588297,-0.054 l 0.763137,0.28215 -0.120812,-0.80404 c 0,0 -0.08291,-0.56598 0.0071,-1.21523 0.09001,-0.64925 0.335608,-1.29403 0.921842,-1.59681 l 0.128689,-0.0668 c 0.07189,-0.006 1.093604,-0.0848 2.760648,-0.0694 z M 6.2986845,265.7845 v 21.56853 l -4.3773366,5.81431 v -21.8094 z m 38.4689535,0.47086 c 2.541514,1.01141 5.074063,2.34207 7.418626,4.09295 0,0 1.083924,0.81373 1.083924,7.2284 0,6.09389 0.05909,8.85547 0.06529,9.13699 H 40.449204 Z m 28.98678,8.77044 c 1.028822,0.0132 2.104126,0.0683 3.225133,0.17333 l -0.19285,1.23138 0.320415,0.1557 c 0,0 0.39121,0.18766 0.78865,0.40708 0.198723,0.10971 0.399058,0.22837 0.541775,0.32492 0.07137,0.0483 0.127398,0.0923 0.155699,0.11743 0.0029,0.003 -0.0051,-0.009 -0.0029,-0.007 l 0.02556,0.0383 c 0,0 0.396147,0.59206 0.804027,1.23363 0.203944,0.32079 0.409891,0.654 0.568414,0.92596 0.158516,0.27197 0.276751,0.55959 0.258128,0.48512 l 0.03115,0.12345 0.08667,0.0904 c 0,0 0.371818,0.39344 0.75563,0.9631 0.383811,0.56966 0.750721,1.31116 0.777396,1.88458 l 0.01125,0.248 0.208228,0.1347 c 0,0 2.097715,1.40245 2.894968,3.15797 H 56.734314 c -0.0073,-0.55283 -0.06156,-6.03323 0.721115,-7.04419 0.743334,-0.96015 6.353724,-4.7712 16.298989,-4.64372 z M 7.7375379,288.63543 H 38.035984 l -1.633577,6.44501 H 2.8844595 Z m 32.3060861,0 h 62.218836 l 4.85308,6.44501 H 38.683186 Z"
       id="rect4866"
       inkscape:connector-curvature="0" />
  </g>
</svg>
